<mxfile host="Electron" modified="2024-05-20T09:27:41.336Z" agent="Mozilla/5.0 (X11; Linux x86_64) AppleWebKit/537.36 (KHTML, like Gecko) draw.io/24.4.0 Chrome/120.0.6099.109 Electron/28.1.0 Safari/537.36" etag="P-DcE2kAEPaghD4s2s_D" version="24.4.0" type="device">
  <diagram name="第 1 页" id="6D0zK1bDNCYHFlcMk1Qu">
    <mxGraphModel dx="521" dy="298" grid="1" gridSize="10" guides="1" tooltips="1" connect="1" arrows="1" fold="1" page="1" pageScale="1" pageWidth="827" pageHeight="1169" math="1" shadow="0">
      <root>
        <mxCell id="0" />
        <mxCell id="1" parent="0" />
        <mxCell id="7r8PYEQYi6Yw_CeHk8A7-1" value="" style="group" parent="1" vertex="1" connectable="0">
          <mxGeometry x="110.5" y="27.5" width="510.24" height="300" as="geometry" />
        </mxCell>
        <mxCell id="GRYm4dySeyo8Iu5m_VjR-1" value="" style="shape=image;verticalLabelPosition=bottom;labelBackgroundColor=default;verticalAlign=top;aspect=fixed;imageAspect=0;image=data:image/svg+xml,PHN2ZyB4bWxucz0iaHR0cDovL3d3dy53My5vcmcvMjAwMC9zdmciIHhtbG5zOnhsaW5rPSJodHRwOi8vd3d3LnczLm9yZy8xOTk5L3hsaW5rIiB2ZXJzaW9uPSIxLjEiIHZpZXdCb3g9IjAgMCA2NDggMzgxIiBoZWlnaHQ9IjM4MXB0IiB3aWR0aD0iNjQ4cHQiPiYjeGE7IDxtZXRhZGF0YT4mI3hhOyAgJiN4YTsgICAmI3hhOyAgICAmI3hhOyAgICAyMDI0LTAxLTE4VDIyOjU4OjA1LjgwMzU0MCYjeGE7ICAgIGltYWdlL3N2Zyt4bWwmI3hhOyAgICAmI3hhOyAgICAgJiN4YTsgICAgICBNYXRwbG90bGliIHYzLjcuNCwgaHR0cHM6Ly9tYXRwbG90bGliLm9yZy8mI3hhOyAgICAgJiN4YTsgICAgJiN4YTsgICAmI3hhOyAgJiN4YTsgPC9tZXRhZGF0YT4mI3hhOyA8ZGVmcz4mI3hhOyAgPHN0eWxlIHR5cGU9InRleHQvY3NzIj4qe3N0cm9rZS1saW5lam9pbjogcm91bmQ7IHN0cm9rZS1saW5lY2FwOiBidXR0fTwvc3R5bGU+JiN4YTsgPC9kZWZzPiYjeGE7IDxnIGlkPSJmaWd1cmVfMSI+JiN4YTsgIDxnIGlkPSJwYXRjaF8xIj4mI3hhOyAgIDxwYXRoIHN0eWxlPSJmaWxsOiAjZmZmZmZmIiBkPSJNIDAgMzgxICYjMTA7TCA2NDggMzgxICYjMTA7TCA2NDggMCAmIzEwO0wgMCAwICYjMTA7eiIvPiYjeGE7ICA8L2c+JiN4YTsgIDxnIGlkPSJheGVzXzEiPiYjeGE7ICAgPGcgaWQ9InBhdGNoXzIiPiYjeGE7ICAgIDxwYXRoIHN0eWxlPSJmaWxsOiAjZmZmZmZmIiBkPSJNIDgxIDMzOS4wOSAmIzEwO0wgNTgzLjIgMzM5LjA5ICYjMTA7TCA1ODMuMiA0NS43MiAmIzEwO0wgODEgNDUuNzIgJiMxMDt6Ii8+JiN4YTsgICA8L2c+JiN4YTsgICA8ZyBpZD0ibWF0cGxvdGxpYi5heGlzXzEiPiYjeGE7ICAgIDxnIGlkPSJ4dGlja18xIj4mI3hhOyAgICAgPGcgaWQ9ImxpbmUyZF8xIj4mI3hhOyAgICAgIDxkZWZzPiYjeGE7ICAgICAgIDxwYXRoIHN0eWxlPSJzdHJva2U6ICMwMDAwMDA7IHN0cm9rZS13aWR0aDogMC44IiBkPSJNIDAgMCAmIzEwO0wgMCAzLjUiIGlkPSJtYmJiZDc5ZjllMyIvPiYjeGE7ICAgICAgPC9kZWZzPiYjeGE7ICAgICAgPGc+JiN4YTsgICAgICAgPHVzZSBzdHlsZT0ic3Ryb2tlOiAjMDAwMDAwOyBzdHJva2Utd2lkdGg6IDAuOCIgeT0iMTkyLjQwNSIgeD0iODEiIHhsaW5rOmhyZWY9IiNtYmJiZDc5ZjllMyIvPiYjeGE7ICAgICAgPC9nPiYjeGE7ICAgICA8L2c+JiN4YTsgICAgIDxnIGlkPSJ0ZXh0XzEiPiYjeGE7ICAgICAgJiN4YTsgICAgICA8ZyB0cmFuc2Zvcm09InRyYW5zbGF0ZSg3My42Mjg5MDYgMjA3LjAwMzQzNykgc2NhbGUoMC4xIC0wLjEpIj4mI3hhOyAgICAgICA8ZGVmcz4mI3hhOyAgICAgICAgPHBhdGggdHJhbnNmb3JtPSJzY2FsZSgwLjAxNTYyNSkiIGQ9Ik0gNjc4IDIyNzIgJiMxMDtMIDQ2ODQgMjI3MiAmIzEwO0wgNDY4NCAxNzQxICYjMTA7TCA2NzggMTc0MSAmIzEwO0wgNjc4IDIyNzIgJiMxMDt6IiBpZD0iRGVqYVZ1U2Fucy0yMjEyIi8+JiN4YTsgICAgICAgIDxwYXRoIHRyYW5zZm9ybT0ic2NhbGUoMC4wMTU2MjUpIiBkPSJNIDIxMTMgMjU4NCAmIzEwO1EgMTY4OCAyNTg0IDE0MzkgMjI5MyAmIzEwO1EgMTE5MSAyMDAzIDExOTEgMTQ5NyAmIzEwO1EgMTE5MSA5OTQgMTQzOSA3MDEgJiMxMDtRIDE2ODggNDA5IDIxMTMgNDA5ICYjMTA7USAyNTM4IDQwOSAyNzg2IDcwMSAmIzEwO1EgMzAzNCA5OTQgMzAzNCAxNDk3ICYjMTA7USAzMDM0IDIwMDMgMjc4NiAyMjkzICYjMTA7USAyNTM4IDI1ODQgMjExMyAyNTg0ICYjMTA7eiYjMTA7TSAzMzY2IDQ1NjMgJiMxMDtMIDMzNjYgMzk4OCAmIzEwO1EgMzEyOCA0MTAwIDI4ODYgNDE1OSAmIzEwO1EgMjY0NCA0MjE5IDI0MDYgNDIxOSAmIzEwO1EgMTc4MSA0MjE5IDE0NTEgMzc5NyAmIzEwO1EgMTEyMiAzMzc1IDEwNzUgMjUyMiAmIzEwO1EgMTI1OSAyNzk0IDE1MzcgMjkzOSAmIzEwO1EgMTgxNiAzMDg0IDIxNTAgMzA4NCAmIzEwO1EgMjg1MyAzMDg0IDMyNjEgMjY1NyAmIzEwO1EgMzY2OSAyMjMxIDM2NjkgMTQ5NyAmIzEwO1EgMzY2OSA3NzggMzI0NCAzNDMgJiMxMDtRIDI4MTkgLTkxIDIxMTMgLTkxICYjMTA7USAxMzAzIC05MSA4NzUgNTI5ICYjMTA7USA0NDcgMTE1MCA0NDcgMjMyOCAmIzEwO1EgNDQ3IDM0MzQgOTcyIDQwOTIgJiMxMDtRIDE0OTcgNDc1MCAyMzgxIDQ3NTAgJiMxMDtRIDI2MTkgNDc1MCAyODYxIDQ3MDMgJiMxMDtRIDMxMDMgNDY1NiAzMzY2IDQ1NjMgJiMxMDt6IiBpZD0iRGVqYVZ1U2Fucy0zNiIvPiYjeGE7ICAgICAgIDwvZGVmcz4mI3hhOyAgICAgICA8dXNlIHhsaW5rOmhyZWY9IiNEZWphVnVTYW5zLTIyMTIiLz4mI3hhOyAgICAgICA8dXNlIHg9IjgzLjc4OTA2MiIgeGxpbms6aHJlZj0iI0RlamFWdVNhbnMtMzYiLz4mI3hhOyAgICAgIDwvZz4mI3hhOyAgICAgPC9nPiYjeGE7ICAgIDwvZz4mI3hhOyAgICA8ZyBpZD0ieHRpY2tfMiI+JiN4YTsgICAgIDxnIGlkPSJsaW5lMmRfMiI+JiN4YTsgICAgICA8Zz4mI3hhOyAgICAgICA8dXNlIHN0eWxlPSJzdHJva2U6ICMwMDAwMDA7IHN0cm9rZS13aWR0aDogMC44IiB5PSIxOTIuNDA1IiB4PSIxNjQuNyIgeGxpbms6aHJlZj0iI21iYmJkNzlmOWUzIi8+JiN4YTsgICAgICA8L2c+JiN4YTsgICAgIDwvZz4mI3hhOyAgICAgPGcgaWQ9InRleHRfMiI+JiN4YTsgICAgICAmI3hhOyAgICAgIDxnIHRyYW5zZm9ybT0idHJhbnNsYXRlKDE1Ny4zMjg5MDYgMjA3LjAwMzQzNykgc2NhbGUoMC4xIC0wLjEpIj4mI3hhOyAgICAgICA8ZGVmcz4mI3hhOyAgICAgICAgPHBhdGggdHJhbnNmb3JtPSJzY2FsZSgwLjAxNTYyNSkiIGQ9Ik0gMjQxOSA0MTE2ICYjMTA7TCA4MjUgMTYyNSAmIzEwO0wgMjQxOSAxNjI1ICYjMTA7TCAyNDE5IDQxMTYgJiMxMDt6JiMxMDtNIDIyNTMgNDY2NiAmIzEwO0wgMzA0NyA0NjY2ICYjMTA7TCAzMDQ3IDE2MjUgJiMxMDtMIDM3MTMgMTYyNSAmIzEwO0wgMzcxMyAxMTAwICYjMTA7TCAzMDQ3IDExMDAgJiMxMDtMIDMwNDcgMCAmIzEwO0wgMjQxOSAwICYjMTA7TCAyNDE5IDExMDAgJiMxMDtMIDMxMyAxMTAwICYjMTA7TCAzMTMgMTcwOSAmIzEwO0wgMjI1MyA0NjY2ICYjMTA7eiIgaWQ9IkRlamFWdVNhbnMtMzQiLz4mI3hhOyAgICAgICA8L2RlZnM+JiN4YTsgICAgICAgPHVzZSB4bGluazpocmVmPSIjRGVqYVZ1U2Fucy0yMjEyIi8+JiN4YTsgICAgICAgPHVzZSB4PSI4My43ODkwNjIiIHhsaW5rOmhyZWY9IiNEZWphVnVTYW5zLTM0Ii8+JiN4YTsgICAgICA8L2c+JiN4YTsgICAgIDwvZz4mI3hhOyAgICA8L2c+JiN4YTsgICAgPGcgaWQ9Inh0aWNrXzMiPiYjeGE7ICAgICA8ZyBpZD0ibGluZTJkXzMiPiYjeGE7ICAgICAgPGc+JiN4YTsgICAgICAgPHVzZSBzdHlsZT0ic3Ryb2tlOiAjMDAwMDAwOyBzdHJva2Utd2lkdGg6IDAuOCIgeT0iMTkyLjQwNSIgeD0iMjQ4LjQiIHhsaW5rOmhyZWY9IiNtYmJiZDc5ZjllMyIvPiYjeGE7ICAgICAgPC9nPiYjeGE7ICAgICA8L2c+JiN4YTsgICAgIDxnIGlkPSJ0ZXh0XzMiPiYjeGE7ICAgICAgJiN4YTsgICAgICA8ZyB0cmFuc2Zvcm09InRyYW5zbGF0ZSgyNDEuMDI4OTA2IDIwNy4wMDM0MzcpIHNjYWxlKDAuMSAtMC4xKSI+JiN4YTsgICAgICAgPGRlZnM+JiN4YTsgICAgICAgIDxwYXRoIHRyYW5zZm9ybT0ic2NhbGUoMC4wMTU2MjUpIiBkPSJNIDEyMjggNTMxICYjMTA7TCAzNDMxIDUzMSAmIzEwO0wgMzQzMSAwICYjMTA7TCA0NjkgMCAmIzEwO0wgNDY5IDUzMSAmIzEwO1EgODI4IDkwMyAxNDQ4IDE1MjkgJiMxMDtRIDIwNjkgMjE1NiAyMjI4IDIzMzggJiMxMDtRIDI1MzEgMjY3OCAyNjUxIDI5MTQgJiMxMDtRIDI3NzIgMzE1MCAyNzcyIDMzNzggJiMxMDtRIDI3NzIgMzc1MCAyNTExIDM5ODQgJiMxMDtRIDIyNTAgNDIxOSAxODMxIDQyMTkgJiMxMDtRIDE1MzQgNDIxOSAxMjA0IDQxMTYgJiMxMDtRIDg3NSA0MDEzIDUwMCAzODAzICYjMTA7TCA1MDAgNDQ0MSAmIzEwO1EgODgxIDQ1OTQgMTIxMiA0NjcyICYjMTA7USAxNTQ0IDQ3NTAgMTgxOSA0NzUwICYjMTA7USAyNTQ0IDQ3NTAgMjk3NSA0Mzg3ICYjMTA7USAzNDA2IDQwMjUgMzQwNiAzNDE5ICYjMTA7USAzNDA2IDMxMzEgMzI5OCAyODczICYjMTA7USAzMTkxIDI2MTYgMjkwNiAyMjY2ICYjMTA7USAyODI4IDIxNzUgMjQwOSAxNzQyICYjMTA7USAxOTkxIDEzMDkgMTIyOCA1MzEgJiMxMDt6IiBpZD0iRGVqYVZ1U2Fucy0zMiIvPiYjeGE7ICAgICAgIDwvZGVmcz4mI3hhOyAgICAgICA8dXNlIHhsaW5rOmhyZWY9IiNEZWphVnVTYW5zLTIyMTIiLz4mI3hhOyAgICAgICA8dXNlIHg9IjgzLjc4OTA2MiIgeGxpbms6aHJlZj0iI0RlamFWdVNhbnMtMzIiLz4mI3hhOyAgICAgIDwvZz4mI3hhOyAgICAgPC9nPiYjeGE7ICAgIDwvZz4mI3hhOyAgICA8ZyBpZD0ieHRpY2tfNCI+JiN4YTsgICAgIDxnIGlkPSJsaW5lMmRfNCI+JiN4YTsgICAgICA8Zz4mI3hhOyAgICAgICA8dXNlIHN0eWxlPSJzdHJva2U6ICMwMDAwMDA7IHN0cm9rZS13aWR0aDogMC44IiB5PSIxOTIuNDA1IiB4PSIzMzIuMSIgeGxpbms6aHJlZj0iI21iYmJkNzlmOWUzIi8+JiN4YTsgICAgICA8L2c+JiN4YTsgICAgIDwvZz4mI3hhOyAgICAgPGcgaWQ9InRleHRfNCI+JiN4YTsgICAgICAmI3hhOyAgICAgIDxnIHRyYW5zZm9ybT0idHJhbnNsYXRlKDMyOC45MTg3NSAyMDcuMDAzNDM3KSBzY2FsZSgwLjEgLTAuMSkiPiYjeGE7ICAgICAgIDxkZWZzPiYjeGE7ICAgICAgICA8cGF0aCB0cmFuc2Zvcm09InNjYWxlKDAuMDE1NjI1KSIgZD0iTSAyMDM0IDQyNTAgJiMxMDtRIDE1NDcgNDI1MCAxMzAxIDM3NzAgJiMxMDtRIDEwNTYgMzI5MSAxMDU2IDIzMjggJiMxMDtRIDEwNTYgMTM2OSAxMzAxIDg4OSAmIzEwO1EgMTU0NyA0MDkgMjAzNCA0MDkgJiMxMDtRIDI1MjUgNDA5IDI3NzAgODg5ICYjMTA7USAzMDE2IDEzNjkgMzAxNiAyMzI4ICYjMTA7USAzMDE2IDMyOTEgMjc3MCAzNzcwICYjMTA7USAyNTI1IDQyNTAgMjAzNCA0MjUwICYjMTA7eiYjMTA7TSAyMDM0IDQ3NTAgJiMxMDtRIDI4MTkgNDc1MCAzMjMzIDQxMjkgJiMxMDtRIDM2NDcgMzUwOSAzNjQ3IDIzMjggJiMxMDtRIDM2NDcgMTE1MCAzMjMzIDUyOSAmIzEwO1EgMjgxOSAtOTEgMjAzNCAtOTEgJiMxMDtRIDEyNTAgLTkxIDgzNiA1MjkgJiMxMDtRIDQyMiAxMTUwIDQyMiAyMzI4ICYjMTA7USA0MjIgMzUwOSA4MzYgNDEyOSAmIzEwO1EgMTI1MCA0NzUwIDIwMzQgNDc1MCAmIzEwO3oiIGlkPSJEZWphVnVTYW5zLTMwIi8+JiN4YTsgICAgICAgPC9kZWZzPiYjeGE7ICAgICAgIDx1c2UgeGxpbms6aHJlZj0iI0RlamFWdVNhbnMtMzAiLz4mI3hhOyAgICAgIDwvZz4mI3hhOyAgICAgPC9nPiYjeGE7ICAgIDwvZz4mI3hhOyAgICA8ZyBpZD0ieHRpY2tfNSI+JiN4YTsgICAgIDxnIGlkPSJsaW5lMmRfNSI+JiN4YTsgICAgICA8Zz4mI3hhOyAgICAgICA8dXNlIHN0eWxlPSJzdHJva2U6ICMwMDAwMDA7IHN0cm9rZS13aWR0aDogMC44IiB5PSIxOTIuNDA1IiB4PSI0MTUuOCIgeGxpbms6aHJlZj0iI21iYmJkNzlmOWUzIi8+JiN4YTsgICAgICA8L2c+JiN4YTsgICAgIDwvZz4mI3hhOyAgICAgPGcgaWQ9InRleHRfNSI+JiN4YTsgICAgICAmI3hhOyAgICAgIDxnIHRyYW5zZm9ybT0idHJhbnNsYXRlKDQxMi42MTg3NSAyMDcuMDAzNDM3KSBzY2FsZSgwLjEgLTAuMSkiPiYjeGE7ICAgICAgIDx1c2UgeGxpbms6aHJlZj0iI0RlamFWdVNhbnMtMzIiLz4mI3hhOyAgICAgIDwvZz4mI3hhOyAgICAgPC9nPiYjeGE7ICAgIDwvZz4mI3hhOyAgICA8ZyBpZD0ieHRpY2tfNiI+JiN4YTsgICAgIDxnIGlkPSJsaW5lMmRfNiI+JiN4YTsgICAgICA8Zz4mI3hhOyAgICAgICA8dXNlIHN0eWxlPSJzdHJva2U6ICMwMDAwMDA7IHN0cm9rZS13aWR0aDogMC44IiB5PSIxOTIuNDA1IiB4PSI0OTkuNSIgeGxpbms6aHJlZj0iI21iYmJkNzlmOWUzIi8+JiN4YTsgICAgICA8L2c+JiN4YTsgICAgIDwvZz4mI3hhOyAgICAgPGcgaWQ9InRleHRfNiI+JiN4YTsgICAgICAmI3hhOyAgICAgIDxnIHRyYW5zZm9ybT0idHJhbnNsYXRlKDQ5Ni4zMTg3NSAyMDcuMDAzNDM3KSBzY2FsZSgwLjEgLTAuMSkiPiYjeGE7ICAgICAgIDx1c2UgeGxpbms6aHJlZj0iI0RlamFWdVNhbnMtMzQiLz4mI3hhOyAgICAgIDwvZz4mI3hhOyAgICAgPC9nPiYjeGE7ICAgIDwvZz4mI3hhOyAgICA8ZyBpZD0ieHRpY2tfNyI+JiN4YTsgICAgIDxnIGlkPSJsaW5lMmRfNyI+JiN4YTsgICAgICA8Zz4mI3hhOyAgICAgICA8dXNlIHN0eWxlPSJzdHJva2U6ICMwMDAwMDA7IHN0cm9rZS13aWR0aDogMC44IiB5PSIxOTIuNDA1IiB4PSI1ODMuMiIgeGxpbms6aHJlZj0iI21iYmJkNzlmOWUzIi8+JiN4YTsgICAgICA8L2c+JiN4YTsgICAgIDwvZz4mI3hhOyAgICAgPGcgaWQ9InRleHRfNyI+JiN4YTsgICAgICAmI3hhOyAgICAgIDxnIHRyYW5zZm9ybT0idHJhbnNsYXRlKDU4MC4wMTg3NSAyMDcuMDAzNDM3KSBzY2FsZSgwLjEgLTAuMSkiPiYjeGE7ICAgICAgIDx1c2UgeGxpbms6aHJlZj0iI0RlamFWdVNhbnMtMzYiLz4mI3hhOyAgICAgIDwvZz4mI3hhOyAgICAgPC9nPiYjeGE7ICAgIDwvZz4mI3hhOyAgICA8ZyBpZD0idGV4dF84Ij4mI3hhOyAgICAgJiN4YTsgICAgIDxnIHRyYW5zZm9ybT0idHJhbnNsYXRlKDU3Ny4yODEyNSAyMjAuNjgxNTYyKSBzY2FsZSgwLjEgLTAuMSkiPiYjeGE7ICAgICAgPGRlZnM+JiN4YTsgICAgICAgPHBhdGggdHJhbnNmb3JtPSJzY2FsZSgwLjAxNTYyNSkiIGQ9Ik0gMzUxMyAzNTAwICYjMTA7TCAyMjQ3IDE3OTcgJiMxMDtMIDM1NzggMCAmIzEwO0wgMjkwMCAwICYjMTA7TCAxODgxIDEzNzUgJiMxMDtMIDg2MyAwICYjMTA7TCAxODQgMCAmIzEwO0wgMTU0NCAxODMxICYjMTA7TCAzMDAgMzUwMCAmIzEwO0wgOTc4IDM1MDAgJiMxMDtMIDE5MDYgMjI1MyAmIzEwO0wgMjgzNCAzNTAwICYjMTA7TCAzNTEzIDM1MDAgJiMxMDt6IiBpZD0iRGVqYVZ1U2Fucy03OCIvPiYjeGE7ICAgICAgPC9kZWZzPiYjeGE7ICAgICAgPHVzZSB4bGluazpocmVmPSIjRGVqYVZ1U2Fucy03OCIvPiYjeGE7ICAgICA8L2c+JiN4YTsgICAgPC9nPiYjeGE7ICAgPC9nPiYjeGE7ICAgPGcgaWQ9Im1hdHBsb3RsaWIuYXhpc18yIj4mI3hhOyAgICA8ZyBpZD0ieXRpY2tfMSI+JiN4YTsgICAgIDxnIGlkPSJsaW5lMmRfOCI+JiN4YTsgICAgICA8ZGVmcz4mI3hhOyAgICAgICA8cGF0aCBzdHlsZT0ic3Ryb2tlOiAjMDAwMDAwOyBzdHJva2Utd2lkdGg6IDAuOCIgZD0iTSAwIDAgJiMxMDtMIC0zLjUgMCIgaWQ9Im01ZmY4MzVkY2E0Ii8+JiN4YTsgICAgICA8L2RlZnM+JiN4YTsgICAgICA8Zz4mI3hhOyAgICAgICA8dXNlIHN0eWxlPSJzdHJva2U6ICMwMDAwMDA7IHN0cm9rZS13aWR0aDogMC44IiB5PSIzMTQuNjQyNSIgeD0iMzMyLjEiIHhsaW5rOmhyZWY9IiNtNWZmODM1ZGNhNCIvPiYjeGE7ICAgICAgPC9nPiYjeGE7ICAgICA8L2c+JiN4YTsgICAgIDxnIGlkPSJ0ZXh0XzkiPiYjeGE7ICAgICAgJiN4YTsgICAgICA8ZyB0cmFuc2Zvcm09InRyYW5zbGF0ZSgzMDAuODE3MTg4IDMxOC40NDE3MTkpIHNjYWxlKDAuMSAtMC4xKSI+JiN4YTsgICAgICAgPGRlZnM+JiN4YTsgICAgICAgIDxwYXRoIHRyYW5zZm9ybT0ic2NhbGUoMC4wMTU2MjUpIiBkPSJNIDc5NCA1MzEgJiMxMDtMIDE4MjUgNTMxICYjMTA7TCAxODI1IDQwOTEgJiMxMDtMIDcwMyAzODY2ICYjMTA7TCA3MDMgNDQ0MSAmIzEwO0wgMTgxOSA0NjY2ICYjMTA7TCAyNDUwIDQ2NjYgJiMxMDtMIDI0NTAgNTMxICYjMTA7TCAzNDgxIDUzMSAmIzEwO0wgMzQ4MSAwICYjMTA7TCA3OTQgMCAmIzEwO0wgNzk0IDUzMSAmIzEwO3oiIGlkPSJEZWphVnVTYW5zLTMxIi8+JiN4YTsgICAgICAgIDxwYXRoIHRyYW5zZm9ybT0ic2NhbGUoMC4wMTU2MjUpIiBkPSJNIDY4NCA3OTQgJiMxMDtMIDEzNDQgNzk0ICYjMTA7TCAxMzQ0IDAgJiMxMDtMIDY4NCAwICYjMTA7TCA2ODQgNzk0ICYjMTA7eiIgaWQ9IkRlamFWdVNhbnMtMmUiLz4mI3hhOyAgICAgICA8L2RlZnM+JiN4YTsgICAgICAgPHVzZSB4bGluazpocmVmPSIjRGVqYVZ1U2Fucy0yMjEyIi8+JiN4YTsgICAgICAgPHVzZSB4PSI4My43ODkwNjIiIHhsaW5rOmhyZWY9IiNEZWphVnVTYW5zLTMxIi8+JiN4YTsgICAgICAgPHVzZSB4PSIxNDcuNDEyMTA5IiB4bGluazpocmVmPSIjRGVqYVZ1U2Fucy0yZSIvPiYjeGE7ICAgICAgIDx1c2UgeD0iMTc5LjE5OTIxOSIgeGxpbms6aHJlZj0iI0RlamFWdVNhbnMtMzAiLz4mI3hhOyAgICAgIDwvZz4mI3hhOyAgICAgPC9nPiYjeGE7ICAgIDwvZz4mI3hhOyAgICA8ZyBpZD0ieXRpY2tfMiI+JiN4YTsgICAgIDxnIGlkPSJsaW5lMmRfOSI+JiN4YTsgICAgICA8Zz4mI3hhOyAgICAgICA8dXNlIHN0eWxlPSJzdHJva2U6ICMwMDAwMDA7IHN0cm9rZS13aWR0aDogMC44IiB5PSIyNTMuNTIzNzUiIHg9IjMzMi4xIiB4bGluazpocmVmPSIjbTVmZjgzNWRjYTQiLz4mI3hhOyAgICAgIDwvZz4mI3hhOyAgICAgPC9nPiYjeGE7ICAgICA8ZyBpZD0idGV4dF8xMCI+JiN4YTsgICAgICAmI3hhOyAgICAgIDxnIHRyYW5zZm9ybT0idHJhbnNsYXRlKDMwMC44MTcxODggMjU3LjMyMjk2OSkgc2NhbGUoMC4xIC0wLjEpIj4mI3hhOyAgICAgICA8ZGVmcz4mI3hhOyAgICAgICAgPHBhdGggdHJhbnNmb3JtPSJzY2FsZSgwLjAxNTYyNSkiIGQ9Ik0gNjkxIDQ2NjYgJiMxMDtMIDMxNjkgNDY2NiAmIzEwO0wgMzE2OSA0MTM0ICYjMTA7TCAxMjY5IDQxMzQgJiMxMDtMIDEyNjkgMjk5MSAmIzEwO1EgMTQwNiAzMDM4IDE1NDMgMzA2MSAmIzEwO1EgMTY4MSAzMDg0IDE4MTkgMzA4NCAmIzEwO1EgMjYwMCAzMDg0IDMwNTYgMjY1NiAmIzEwO1EgMzUxMyAyMjI4IDM1MTMgMTQ5NyAmIzEwO1EgMzUxMyA3NDQgMzA0NCAzMjYgJiMxMDtRIDI1NzUgLTkxIDE3MjIgLTkxICYjMTA7USAxNDI4IC05MSAxMTIzIC00MSAmIzEwO1EgODE5IDkgNDk0IDEwOSAmIzEwO0wgNDk0IDc0NCAmIzEwO1EgNzc1IDU5MSAxMDc1IDUxNiAmIzEwO1EgMTM3NSA0NDEgMTcwOSA0NDEgJiMxMDtRIDIyNTAgNDQxIDI1NjUgNzI1ICYjMTA7USAyODgxIDEwMDkgMjg4MSAxNDk3ICYjMTA7USAyODgxIDE5ODQgMjU2NSAyMjY4ICYjMTA7USAyMjUwIDI1NTMgMTcwOSAyNTUzICYjMTA7USAxNDU2IDI1NTMgMTIwNCAyNDk3ICYjMTA7USA5NTMgMjQ0MSA2OTEgMjMyMiAmIzEwO0wgNjkxIDQ2NjYgJiMxMDt6IiBpZD0iRGVqYVZ1U2Fucy0zNSIvPiYjeGE7ICAgICAgIDwvZGVmcz4mI3hhOyAgICAgICA8dXNlIHhsaW5rOmhyZWY9IiNEZWphVnVTYW5zLTIyMTIiLz4mI3hhOyAgICAgICA8dXNlIHg9IjgzLjc4OTA2MiIgeGxpbms6aHJlZj0iI0RlamFWdVNhbnMtMzAiLz4mI3hhOyAgICAgICA8dXNlIHg9IjE0Ny40MTIxMDkiIHhsaW5rOmhyZWY9IiNEZWphVnVTYW5zLTJlIi8+JiN4YTsgICAgICAgPHVzZSB4PSIxNzkuMTk5MjE5IiB4bGluazpocmVmPSIjRGVqYVZ1U2Fucy0zNSIvPiYjeGE7ICAgICAgPC9nPiYjeGE7ICAgICA8L2c+JiN4YTsgICAgPC9nPiYjeGE7ICAgIDxnIGlkPSJ5dGlja18zIj4mI3hhOyAgICAgPGcgaWQ9ImxpbmUyZF8xMCI+JiN4YTsgICAgICA8Zz4mI3hhOyAgICAgICA8dXNlIHN0eWxlPSJzdHJva2U6ICMwMDAwMDA7IHN0cm9rZS13aWR0aDogMC44IiB5PSIxOTIuNDA1IiB4PSIzMzIuMSIgeGxpbms6aHJlZj0iI201ZmY4MzVkY2E0Ii8+JiN4YTsgICAgICA8L2c+JiN4YTsgICAgIDwvZz4mI3hhOyAgICAgPGcgaWQ9InRleHRfMTEiPiYjeGE7ICAgICAgJiN4YTsgICAgICA8ZyB0cmFuc2Zvcm09InRyYW5zbGF0ZSgzMDkuMTk2ODc1IDE5Ni4yMDQyMTkpIHNjYWxlKDAuMSAtMC4xKSI+JiN4YTsgICAgICAgPHVzZSB4bGluazpocmVmPSIjRGVqYVZ1U2Fucy0zMCIvPiYjeGE7ICAgICAgIDx1c2UgeD0iNjMuNjIzMDQ3IiB4bGluazpocmVmPSIjRGVqYVZ1U2Fucy0yZSIvPiYjeGE7ICAgICAgIDx1c2UgeD0iOTUuNDEwMTU2IiB4bGluazpocmVmPSIjRGVqYVZ1U2Fucy0zMCIvPiYjeGE7ICAgICAgPC9nPiYjeGE7ICAgICA8L2c+JiN4YTsgICAgPC9nPiYjeGE7ICAgIDxnIGlkPSJ5dGlja180Ij4mI3hhOyAgICAgPGcgaWQ9ImxpbmUyZF8xMSI+JiN4YTsgICAgICA8Zz4mI3hhOyAgICAgICA8dXNlIHN0eWxlPSJzdHJva2U6ICMwMDAwMDA7IHN0cm9rZS13aWR0aDogMC44IiB5PSIxMzEuMjg2MjUiIHg9IjMzMi4xIiB4bGluazpocmVmPSIjbTVmZjgzNWRjYTQiLz4mI3hhOyAgICAgIDwvZz4mI3hhOyAgICAgPC9nPiYjeGE7ICAgICA8ZyBpZD0idGV4dF8xMiI+JiN4YTsgICAgICAmI3hhOyAgICAgIDxnIHRyYW5zZm9ybT0idHJhbnNsYXRlKDMwOS4xOTY4NzUgMTM1LjA4NTQ2OSkgc2NhbGUoMC4xIC0wLjEpIj4mI3hhOyAgICAgICA8dXNlIHhsaW5rOmhyZWY9IiNEZWphVnVTYW5zLTMwIi8+JiN4YTsgICAgICAgPHVzZSB4PSI2My42MjMwNDciIHhsaW5rOmhyZWY9IiNEZWphVnVTYW5zLTJlIi8+JiN4YTsgICAgICAgPHVzZSB4PSI5NS40MTAxNTYiIHhsaW5rOmhyZWY9IiNEZWphVnVTYW5zLTM1Ii8+JiN4YTsgICAgICA8L2c+JiN4YTsgICAgIDwvZz4mI3hhOyAgICA8L2c+JiN4YTsgICAgPGcgaWQ9Inl0aWNrXzUiPiYjeGE7ICAgICA8ZyBpZD0ibGluZTJkXzEyIj4mI3hhOyAgICAgIDxnPiYjeGE7ICAgICAgIDx1c2Ugc3R5bGU9InN0cm9rZTogIzAwMDAwMDsgc3Ryb2tlLXdpZHRoOiAwLjgiIHk9IjcwLjE2NzUiIHg9IjMzMi4xIiB4bGluazpocmVmPSIjbTVmZjgzNWRjYTQiLz4mI3hhOyAgICAgIDwvZz4mI3hhOyAgICAgPC9nPiYjeGE7ICAgICA8ZyBpZD0idGV4dF8xMyI+JiN4YTsgICAgICAmI3hhOyAgICAgIDxnIHRyYW5zZm9ybT0idHJhbnNsYXRlKDMwOS4xOTY4NzUgNzMuOTY2NzE5KSBzY2FsZSgwLjEgLTAuMSkiPiYjeGE7ICAgICAgIDx1c2UgeGxpbms6aHJlZj0iI0RlamFWdVNhbnMtMzEiLz4mI3hhOyAgICAgICA8dXNlIHg9IjYzLjYyMzA0NyIgeGxpbms6aHJlZj0iI0RlamFWdVNhbnMtMmUiLz4mI3hhOyAgICAgICA8dXNlIHg9Ijk1LjQxMDE1NiIgeGxpbms6aHJlZj0iI0RlamFWdVNhbnMtMzAiLz4mI3hhOyAgICAgIDwvZz4mI3hhOyAgICAgPC9nPiYjeGE7ICAgIDwvZz4mI3hhOyAgICA8ZyBpZD0idGV4dF8xNCI+JiN4YTsgICAgICYjeGE7ICAgICA8ZyB0cmFuc2Zvcm09InRyYW5zbGF0ZSgyOTQuNzM3NSA1MS42Mzg3NSkgcm90YXRlKC05MCkgc2NhbGUoMC4xIC0wLjEpIj4mI3hhOyAgICAgIDxkZWZzPiYjeGE7ICAgICAgIDxwYXRoIHRyYW5zZm9ybT0ic2NhbGUoMC4wMTU2MjUpIiBkPSJNIDIwNTkgLTMyNSAmIzEwO1EgMTgxNiAtOTUwIDE1ODQgLTExNDAgJiMxMDtRIDEzNTMgLTEzMzEgOTY2IC0xMzMxICYjMTA7TCA1MDYgLTEzMzEgJiMxMDtMIDUwNiAtODUwICYjMTA7TCA4NDQgLTg1MCAmIzEwO1EgMTA4MSAtODUwIDEyMTIgLTczNyAmIzEwO1EgMTM0NCAtNjI1IDE1MDMgLTIwNiAmIzEwO0wgMTYwNiA1NiAmIzEwO0wgMTkxIDM1MDAgJiMxMDtMIDgwMCAzNTAwICYjMTA7TCAxODk0IDc2MyAmIzEwO0wgMjk4OCAzNTAwICYjMTA7TCAzNTk3IDM1MDAgJiMxMDtMIDIwNTkgLTMyNSAmIzEwO3oiIGlkPSJEZWphVnVTYW5zLTc5Ii8+JiN4YTsgICAgICA8L2RlZnM+JiN4YTsgICAgICA8dXNlIHhsaW5rOmhyZWY9IiNEZWphVnVTYW5zLTc5Ii8+JiN4YTsgICAgIDwvZz4mI3hhOyAgICA8L2c+JiN4YTsgICA8L2c+JiN4YTsgICA8ZyBpZD0ibGluZTJkXzEzIj4mI3hhOyAgICA8cGF0aCBzdHlsZT0iZmlsbDogbm9uZTsgc3Ryb2tlOiAjNTczNWMzOyBzdHJva2Utd2lkdGg6IDEuNTsgc3Ryb2tlLWxpbmVjYXA6IHNxdWFyZSIgY2xpcC1wYXRoPSJ1cmwoI3BiYWM4MzFkZGJhKSIgZD0iTSA4NS4xODQ5OTYgMTkyLjA3MTA1MiAmIzEwO0wgODkuMzY5OTkyIDE5Mi4wMzYwMzYgJiMxMDtMIDkzLjU1NTAwOCAxOTEuOTk3MzYxICYjMTA7TCA5Ny43NDAwMDQgMTkxLjk1NDY0OCAmIzEwO0wgMTAxLjkyNSAxOTEuOTA3NDc3ICYjMTA7TCAxMDYuMTA5OTk2IDE5MS44NTUzODcgJiMxMDtMIDExMC4yOTQ5OTIgMTkxLjc5Nzg3MSAmIzEwO0wgMTE0LjQ4MDAwOCAxOTEuNzM0MzY4ICYjMTA7TCAxMTguNjY1MDA0IDE5MS42NjQyNjUgJiMxMDtMIDEyMi44NSAxOTEuNTg2ODgzICYjMTA7TCAxMjcuMDM0OTk2IDE5MS41MDE0NzcgJiMxMDtMIDEzMS4yMTk5OTIgMTkxLjQwNzIyOCAmIzEwO0wgMTM1LjQwNTAwOCAxOTEuMzAzMjM3ICYjMTA7TCAxMzkuNTkwMDA0IDE5MS4xODg1MTYgJiMxMDtMIDE0My43NzUgMTkxLjA2MTk4NCAmIzEwO0wgMTQ3Ljk1OTk5NiAxOTAuOTIyNDUxICYjMTA7TCAxNTIuMTQ0OTkyIDE5MC43Njg2MTcgJiMxMDtMIDE1Ni4zMzAwMDggMTkwLjU5OTA1OSAmIzEwO0wgMTYwLjUxNTAwNCAxOTAuNDEyMjIzICYjMTA7TCAxNjQuNyAxOTAuMjA2NDExICYjMTA7TCAxNjguODg0OTk2IDE4OS45Nzk3NzEgJiMxMDtMIDE3My4wNzAwMDIgMTg5LjczMDI4OCAmIzEwO0wgMTc3LjI1NDk5OCAxODkuNDU1NzczICYjMTA7TCAxODEuNDQwMDA0IDE4OS4xNTM4NSAmIzEwO0wgMTg1LjYyNSAxODguODIxOTQ2ICYjMTA7TCAxODkuODA5OTk2IDE4OC40NTcyODMgJiMxMDtMIDE5My45OTUwMDIgMTg4LjA1Njg2NiAmIzEwO0wgMTk4LjE3OTk5OCAxODcuNjE3NDggJiMxMDtMIDIwMi4zNjUwMDQgMTg3LjEzNTY3NiAmIzEwO0wgMjA2LjU1IDE4Ni42MDc3OCAmIzEwO0wgMjEwLjczNDk5NiAxODYuMDI5ODc5ICYjMTA7TCAyMTQuOTIwMDAyIDE4NS4zOTc4MzYgJiMxMDtMIDIxOS4xMDQ5OTggMTg0LjcwNzI5NCAmIzEwO0wgMjIzLjI5MDAwNCAxODMuOTUzNjkxICYjMTA7TCAyMjcuNDc1IDE4My4xMzIyODYgJiMxMDtMIDIzMS42NTk5OTYgMTgyLjIzODE3OCAmIzEwO0wgMjM1Ljg0NTAwMiAxODEuMjY2MzU3ICYjMTA7TCAyNDAuMDI5OTk4IDE4MC4yMTE3NTEgJiMxMDtMIDI0NC4yMTUwMDQgMTc5LjA2OTI3NiAmIzEwO0wgMjQ4LjQgMTc3LjgzMzkzMyAmIzEwO0wgMjUyLjU4NTAwMSAxNzYuNTAwODY1ICYjMTA7TCAyNTYuNzcwMDAyIDE3NS4wNjU0OCAmIzEwO0wgMjYwLjk1NDk5OCAxNzMuNTIzNTUzICYjMTA7TCAyNjUuMTM5OTk5IDE3MS44NzEzNDggJiMxMDtMIDI2OS4zMjUgMTcwLjEwNTc1OSAmIzEwO0wgMjczLjUxMDAwMSAxNjguMjI0NDU0ICYjMTA7TCAyNzcuNjk1MDAyIDE2Ni4yMjYwMDIgJiMxMDtMIDI4MS44Nzk5OTggMTY0LjExMDA0OCAmIzEwO0wgMjg2LjA2NDk5OSAxNjEuODc3NDIxICYjMTA7TCAyOTAuMjUgMTU5LjUzMDI3MiAmIzEwO0wgMjk0LjQzNTAwMSAxNTcuMDcyMTkxICYjMTA7TCAyOTguNjIgMTU0LjUwODI1NiAmIzEwO0wgMzAyLjgwNSAxNTEuODQ1MTAyICYjMTA7TCAzMDYuOTg5OTk5IDE0OS4wOTA5MSAmIzEwO0wgMzExLjE3NSAxNDYuMjU1MzcxICYjMTA7TCAzMTUuMzYgMTQzLjM0OTU4MSAmIzEwO0wgMzE5LjU0NSAxNDAuMzg1OTE2ICYjMTA7TCAzMjMuNzMgMTM3LjM3NzgzMiAmIzEwO0wgMzI3LjkxNSAxMzQuMzM5NjQ1ICYjMTA7TCAzMzIuMSAxMzEuMjg2MjUgJiMxMDtMIDMzNi4yODUgMTI4LjIzMjg1OCAmIzEwO0wgMzQwLjQ3IDEyNS4xOTQ2NzIgJiMxMDtMIDM0NC42NTUgMTIyLjE4NjU4NCAmIzEwO0wgMzQ4Ljg0IDExOS4yMjI5MTkgJiMxMDtMIDM1My4wMjUgMTE2LjMxNzEyNSAmIzEwO0wgMzU3LjIxMDAwMSAxMTMuNDgxNTkgJiMxMDtMIDM2MS4zOTUgMTEwLjcyNzQwMSAmIzEwO0wgMzY1LjU4IDEwOC4wNjQyNDQgJiMxMDtMIDM2OS43NjQ5OTkgMTA1LjUwMDMxMyAmIzEwO0wgMzczLjk1IDEwMy4wNDIyMjUgJiMxMDtMIDM3OC4xMzUwMDEgMTAwLjY5NTA3OSAmIzEwO0wgMzgyLjMyMDAwMiA5OC40NjI0NDcgJiMxMDtMIDM4Ni41MDQ5OTggOTYuMzQ2NDkxICYjMTA7TCAzOTAuNjg5OTk5IDk0LjM0ODA0MiAmIzEwO0wgMzk0Ljg3NSA5Mi40NjY3NDQgJiMxMDtMIDM5OS4wNjAwMDEgOTAuNzAxMTU0ICYjMTA7TCA0MDMuMjQ1MDAyIDg5LjA0ODk0ICYjMTA7TCA0MDcuNDI5OTk4IDg3LjUwNzAyNyAmIzEwO0wgNDExLjYxNDk5OSA4Ni4wNzE2MjggJiMxMDtMIDQxNS44IDg0LjczODU3MyAmIzEwO0wgNDE5Ljk4NDk5NiA4My41MDMyMjMgJiMxMDtMIDQyNC4xNzAwMDIgODIuMzYwNzQ3ICYjMTA7TCA0MjguMzU0OTk4IDgxLjMwNjEzOSAmIzEwO0wgNDMyLjU0MDAwNCA4MC4zMzQzMiAmIzEwO0wgNDM2LjcyNSA3OS40NDAyMTQgJiMxMDtMIDQ0MC45MDk5OTYgNzguNjE4ODA2ICYjMTA7TCA0NDUuMDk1MDAyIDc3Ljg2NTIwOSAmIzEwO0wgNDQ5LjI3OTk5OCA3Ny4xNzQ2NjMgJiMxMDtMIDQ1My40NjUwMDQgNzYuNTQyNjE3ICYjMTA7TCA0NTcuNjUgNzUuOTY0NzE5ICYjMTA7TCA0NjEuODM0OTk2IDc1LjQzNjgyNSAmIzEwO0wgNDY2LjAyMDAwMiA3NC45NTUwMjIgJiMxMDtMIDQ3MC4yMDQ5OTggNzQuNTE1NjI5ICYjMTA7TCA0NzQuMzkwMDA0IDc0LjExNTIxICYjMTA7TCA0NzguNTc1IDczLjc1MDU1NyAmIzEwO0wgNDgyLjc1OTk5NiA3My40MTg2NTQgJiMxMDtMIDQ4Ni45NDUwMDIgNzMuMTE2NzI1ICYjMTA7TCA0OTEuMTI5OTk4IDcyLjg0MjIyMSAmIzEwO0wgNDk1LjMxNTAwNCA3Mi41OTI3MjEgJiMxMDtMIDQ5OS41IDcyLjM2NjA5MyAmIzEwO0wgNTAzLjY4NDk5NiA3Mi4xNjAyOCAmIzEwO0wgNTA3Ljg2OTk5MiA3MS45NzM0NCAmIzEwO0wgNTEyLjA1NTAwOCA3MS44MDM4ODIgJiMxMDtMIDUxNi4yNDAwMDQgNzEuNjUwMDU0ICYjMTA7TCA1MjAuNDI1IDcxLjUxMDUxNCAmIzEwO0wgNTI0LjYwOTk5NiA3MS4zODM5ODcgJiMxMDtMIDUyOC43OTQ5OTIgNzEuMjY5MjcgJiMxMDtMIDUzMi45ODAwMDggNzEuMTY1MjcxICYjMTA7TCA1MzcuMTY1MDA0IDcxLjA3MTAyICYjMTA7TCA1NDEuMzUgNzAuOTg1NjE0ICYjMTA7TCA1NDUuNTM0OTk2IDcwLjkwODIzMSAmIzEwO0wgNTQ5LjcxOTk5MiA3MC44MzgxMjUgJiMxMDtMIDU1My45MDUwMDggNzAuNzc0NjM2ICYjMTA7TCA1NTguMDkwMDA0IDcwLjcxNzExNCAmIzEwO0wgNTYyLjI3NSA3MC42NjUwMTkgJiMxMDtMIDU2Ni40NTk5OTYgNzAuNjE3ODUgJiMxMDtMIDU3MC42NDQ5OTIgNzAuNTc1MTQgJiMxMDtMIDU3NC44MzAwMDggNzAuNTM2NDY2ICYjMTA7TCA1NzkuMDE1MDA0IDcwLjUwMTQ0MyIvPiYjeGE7ICAgPC9nPiYjeGE7ICAgPGcgaWQ9ImxpbmUyZF8xNCI+JiN4YTsgICAgPHBhdGggc3R5bGU9ImZpbGw6IG5vbmU7IHN0cm9rZTogI2FkZTIxNjsgc3Ryb2tlLXdpZHRoOiAxLjU7IHN0cm9rZS1saW5lY2FwOiBzcXVhcmUiIGNsaXAtcGF0aD0idXJsKCNwYmFjODMxZGRiYSkiIGQ9Ik0gODUuMTg0OTk2IDMxNC42NDA2NjQgJiMxMDtMIDg5LjM2OTk5MiAzMTQuNjQwMjU2ICYjMTA7TCA5My41NTUwMDggMzE0LjYzOTc2ICYjMTA7TCA5Ny43NDAwMDQgMzE0LjYzOTE1NiAmIzEwO0wgMTAxLjkyNSAzMTQuNjM4NDIgJiMxMDtMIDEwNi4xMDk5OTYgMzE0LjYzNzUxNiAmIzEwO0wgMTEwLjI5NDk5MiAzMTQuNjM2NDA5ICYjMTA7TCAxMTQuNDgwMDA4IDMxNC42MzUwNjEgJiMxMDtMIDExOC42NjUwMDQgMzE0LjYzMzQxNCAmIzEwO0wgMTIyLjg1IDMxNC42MzE0MDQgJiMxMDtMIDEyNy4wMzQ5OTYgMzE0LjYyODk0MSAmIzEwO0wgMTMxLjIxOTk5MiAzMTQuNjI1OTQ2ICYjMTA7TCAxMzUuNDA1MDA4IDMxNC42MjIyNzQgJiMxMDtMIDEzOS41OTAwMDQgMzE0LjYxNzgwMSAmIzEwO0wgMTQzLjc3NSAzMTQuNjEyMzM2ICYjMTA7TCAxNDcuOTU5OTk2IDMxNC42MDU2NTUgJiMxMDtMIDE1Mi4xNDQ5OTIgMzE0LjU5NzUwMiAmIzEwO0wgMTU2LjMzMDAwOCAzMTQuNTg3NTM1ICYjMTA7TCAxNjAuNTE1MDA0IDMxNC41NzUzNzUgJiMxMDtMIDE2NC43IDMxNC41NjA1MTkgJiMxMDtMIDE2OC44ODQ5OTYgMzE0LjU0MjM3ICYjMTA7TCAxNzMuMDcwMDAyIDMxNC41MjAyMTMgJiMxMDtMIDE3Ny4yNTQ5OTggMzE0LjQ5MzE1MyAmIzEwO0wgMTgxLjQ0MDAwNCAzMTQuNDYwMTExICYjMTA7TCAxODUuNjI1IDMxNC40MTk3NjkgJiMxMDtMIDE4OS44MDk5OTYgMzE0LjM3MDUwOSAmIzEwO0wgMTkzLjk5NTAwMiAzMTQuMzEwMzc4ICYjMTA7TCAxOTguMTc5OTk4IDMxNC4yMzY5NjYgJiMxMDtMIDIwMi4zNjUwMDQgMzE0LjE0NzM2MyAmIzEwO0wgMjA2LjU1IDMxNC4wMzgwMDkgJiMxMDtMIDIxMC43MzQ5OTYgMzEzLjkwNDU3NCAmIzEwO0wgMjE0LjkyMDAwMiAzMTMuNzQxNzkyICYjMTA7TCAyMTkuMTA0OTk4IDMxMy41NDMyNzMgJiMxMDtMIDIyMy4yOTAwMDQgMzEzLjMwMTIzNCAmIzEwO0wgMjI3LjQ3NSAzMTMuMDA2MjY0ICYjMTA7TCAyMzEuNjU5OTk2IDMxMi42NDY5NTkgJiMxMDtMIDIzNS44NDUwMDIgMzEyLjIwOTUzNCAmIzEwO0wgMjQwLjAyOTk5OCAzMTEuNjc3Mzk5ICYjMTA7TCAyNDQuMjE1MDA0IDMxMS4wMzA2MiAmIzEwO0wgMjQ4LjQgMzEwLjI0NTMyMiAmIzEwO0wgMjUyLjU4NTAwMSAzMDkuMjkzMDc0ICYjMTA7TCAyNTYuNzcwMDAyIDMwOC4xNDAyICYjMTA7TCAyNjAuOTU0OTk4IDMwNi43NDcwNjYgJiMxMDtMIDI2NS4xMzk5OTkgMzA1LjA2NzQ1NyAmIzEwO0wgMjY5LjMyNSAzMDMuMDQ4MDYxICYjMTA7TCAyNzMuNTEwMDAxIDMwMC42MjgxNzMgJiMxMDtMIDI3Ny42OTUwMDIgMjk3LjczOTg4ICYjMTA7TCAyODEuODc5OTk4IDI5NC4zMDg4NTkgJiMxMDtMIDI4Ni4wNjQ5OTkgMjkwLjI1NTk5OSAmIzEwO0wgMjkwLjI1IDI4NS41MDAzNjggJiMxMDtMIDI5NC40MzUwMDEgMjc5Ljk2MzQ2ICYjMTA7TCAyOTguNjIgMjczLjU3NTE5MiAmIzEwO0wgMzAyLjgwNSAyNjYuMjgxNDA4ICYjMTA7TCAzMDYuOTg5OTk5IDI1OC4wNTI1OTkgJiMxMDtMIDMxMS4xNzUgMjQ4Ljg5MzA0NyAmIzEwO0wgMzE1LjM2IDIzOC44NDkwMTMgJiMxMDtMIDMxOS41NDUgMjI4LjAxNDMyOCAmIzEwO0wgMzIzLjczIDIxNi41MzE2NjcgJiMxMDtMIDMyNy45MTUgMjA0LjU4ODE2NyAmIzEwO0wgMzMyLjEgMTkyLjQwNSAmIzEwO0wgMzM2LjI4NSAxODAuMjIxODMzICYjMTA7TCAzNDAuNDcgMTY4LjI3ODMzMyAmIzEwO0wgMzQ0LjY1NSAxNTYuNzk1NjcyICYjMTA7TCAzNDguODQgMTQ1Ljk2MDk4NyAmIzEwO0wgMzUzLjAyNSAxMzUuOTE2OTUzICYjMTA7TCAzNTcuMjEwMDAxIDEyNi43NTc0MDEgJiMxMDtMIDM2MS4zOTUgMTE4LjUyODU5MiAmIzEwO0wgMzY1LjU4IDExMS4yMzQ4MDggJiMxMDtMIDM2OS43NjQ5OTkgMTA0Ljg0NjU0ICYjMTA7TCAzNzMuOTUgOTkuMzA5NjMyICYjMTA7TCAzNzguMTM1MDAxIDk0LjU1NDAwMSAmIzEwO0wgMzgyLjMyMDAwMiA5MC41MDExNDEgJiMxMDtMIDM4Ni41MDQ5OTggODcuMDcwMTIgJiMxMDtMIDM5MC42ODk5OTkgODQuMTgxODI3ICYjMTA7TCAzOTQuODc1IDgxLjc2MTkzOSAmIzEwO0wgMzk5LjA2MDAwMSA3OS43NDI1NDMgJiMxMDtMIDQwMy4yNDUwMDIgNzguMDYyOTM0ICYjMTA7TCA0MDcuNDI5OTk4IDc2LjY2OTggJiMxMDtMIDQxMS42MTQ5OTkgNzUuNTE2OTI2ICYjMTA7TCA0MTUuOCA3NC41NjQ2NzggJiMxMDtMIDQxOS45ODQ5OTYgNzMuNzc5MzggJiMxMDtMIDQyNC4xNzAwMDIgNzMuMTMyNjAxICYjMTA7TCA0MjguMzU0OTk4IDcyLjYwMDQ2NiAmIzEwO0wgNDMyLjU0MDAwNCA3Mi4xNjMwNDEgJiMxMDtMIDQzNi43MjUgNzEuODAzNzM2ICYjMTA7TCA0NDAuOTA5OTk2IDcxLjUwODc2NiAmIzEwO0wgNDQ1LjA5NTAwMiA3MS4yNjY3MjcgJiMxMDtMIDQ0OS4yNzk5OTggNzEuMDY4MjA4ICYjMTA7TCA0NTMuNDY1MDA0IDcwLjkwNTQyNiAmIzEwO0wgNDU3LjY1IDcwLjc3MTk5MSAmIzEwO0wgNDYxLjgzNDk5NiA3MC42NjI2MzcgJiMxMDtMIDQ2Ni4wMjAwMDIgNzAuNTczMDM0ICYjMTA7TCA0NzAuMjA0OTk4IDcwLjQ5OTYyMiAmIzEwO0wgNDc0LjM5MDAwNCA3MC40Mzk0OTEgJiMxMDtMIDQ3OC41NzUgNzAuMzkwMjMxICYjMTA7TCA0ODIuNzU5OTk2IDcwLjM0OTg4OSAmIzEwO0wgNDg2Ljk0NTAwMiA3MC4zMTY4NDcgJiMxMDtMIDQ5MS4xMjk5OTggNzAuMjg5Nzg3ICYjMTA7TCA0OTUuMzE1MDA0IDcwLjI2NzYzICYjMTA7TCA0OTkuNSA3MC4yNDk0ODEgJiMxMDtMIDUwMy42ODQ5OTYgNzAuMjM0NjI1ICYjMTA7TCA1MDcuODY5OTkyIDcwLjIyMjQ2NSAmIzEwO0wgNTEyLjA1NTAwOCA3MC4yMTI0OTggJiMxMDtMIDUxNi4yNDAwMDQgNzAuMjA0MzQ1ICYjMTA7TCA1MjAuNDI1IDcwLjE5NzY2NCAmIzEwO0wgNTI0LjYwOTk5NiA3MC4xOTIxOTkgJiMxMDtMIDUyOC43OTQ5OTIgNzAuMTg3NzI2ICYjMTA7TCA1MzIuOTgwMDA4IDcwLjE4NDA1NCAmIzEwO0wgNTM3LjE2NTAwNCA3MC4xODEwNTkgJiMxMDtMIDU0MS4zNSA3MC4xNzg1OTYgJiMxMDtMIDU0NS41MzQ5OTYgNzAuMTc2NTg2ICYjMTA7TCA1NDkuNzE5OTkyIDcwLjE3NDkzOSAmIzEwO0wgNTUzLjkwNTAwOCA3MC4xNzM1OTEgJiMxMDtMIDU1OC4wOTAwMDQgNzAuMTcyNDg0ICYjMTA7TCA1NjIuMjc1IDcwLjE3MTU4ICYjMTA7TCA1NjYuNDU5OTk2IDcwLjE3MDg0NCAmIzEwO0wgNTcwLjY0NDk5MiA3MC4xNzAyNCAmIzEwO0wgNTc0LjgzMDAwOCA3MC4xNjk3NDQgJiMxMDtMIDU3OS4wMTUwMDQgNzAuMTY5MzM2Ii8+JiN4YTsgICA8L2c+JiN4YTsgICA8ZyBpZD0ibGluZTJkXzE1Ij4mI3hhOyAgICA8cGF0aCBzdHlsZT0iZmlsbDogbm9uZTsgc3Ryb2tlOiAjYjAyOGQwOyBzdHJva2Utd2lkdGg6IDEuNTsgc3Ryb2tlLWxpbmVjYXA6IHNxdWFyZSIgY2xpcC1wYXRoPSJ1cmwoI3BiYWM4MzFkZGJhKSIgZD0iTSA4NS4xODQ5OTYgMTkyLjQwNSAmIzEwO0wgODkuMzY5OTkyIDE5Mi40MDUgJiMxMDtMIDkzLjU1NTAwOCAxOTIuNDA1ICYjMTA7TCA5Ny43NDAwMDQgMTkyLjQwNSAmIzEwO0wgMTAxLjkyNSAxOTIuNDA1ICYjMTA7TCAxMDYuMTA5OTk2IDE5Mi40MDUgJiMxMDtMIDExMC4yOTQ5OTIgMTkyLjQwNSAmIzEwO0wgMTE0LjQ4MDAwOCAxOTIuNDA1ICYjMTA7TCAxMTguNjY1MDA0IDE5Mi40MDUgJiMxMDtMIDEyMi44NSAxOTIuNDA1ICYjMTA7TCAxMjcuMDM0OTk2IDE5Mi40MDUgJiMxMDtMIDEzMS4yMTk5OTIgMTkyLjQwNSAmIzEwO0wgMTM1LjQwNTAwOCAxOTIuNDA1ICYjMTA7TCAxMzkuNTkwMDA0IDE5Mi40MDUgJiMxMDtMIDE0My43NzUgMTkyLjQwNSAmIzEwO0wgMTQ3Ljk1OTk5NiAxOTIuNDA1ICYjMTA7TCAxNTIuMTQ0OTkyIDE5Mi40MDUgJiMxMDtMIDE1Ni4zMzAwMDggMTkyLjQwNSAmIzEwO0wgMTYwLjUxNTAwNCAxOTIuNDA1ICYjMTA7TCAxNjQuNyAxOTIuNDA1ICYjMTA7TCAxNjguODg0OTk2IDE5Mi40MDUgJiMxMDtMIDE3My4wNzAwMDIgMTkyLjQwNSAmIzEwO0wgMTc3LjI1NDk5OCAxOTIuNDA1ICYjMTA7TCAxODEuNDQwMDA0IDE5Mi40MDUgJiMxMDtMIDE4NS42MjUgMTkyLjQwNSAmIzEwO0wgMTg5LjgwOTk5NiAxOTIuNDA1ICYjMTA7TCAxOTMuOTk1MDAyIDE5Mi40MDUgJiMxMDtMIDE5OC4xNzk5OTggMTkyLjQwNSAmIzEwO0wgMjAyLjM2NTAwNCAxOTIuNDA1ICYjMTA7TCAyMDYuNTUgMTkyLjQwNSAmIzEwO0wgMjEwLjczNDk5NiAxOTIuNDA1ICYjMTA7TCAyMTQuOTIwMDAyIDE5Mi40MDUgJiMxMDtMIDIxOS4xMDQ5OTggMTkyLjQwNSAmIzEwO0wgMjIzLjI5MDAwNCAxOTIuNDA1ICYjMTA7TCAyMjcuNDc1IDE5Mi40MDUgJiMxMDtMIDIzMS42NTk5OTYgMTkyLjQwNSAmIzEwO0wgMjM1Ljg0NTAwMiAxOTIuNDA1ICYjMTA7TCAyNDAuMDI5OTk4IDE5Mi40MDUgJiMxMDtMIDI0NC4yMTUwMDQgMTkyLjQwNSAmIzEwO0wgMjQ4LjQgMTkyLjQwNSAmIzEwO0wgMjUyLjU4NTAwMSAxOTIuNDA1ICYjMTA7TCAyNTYuNzcwMDAyIDE5Mi40MDUgJiMxMDtMIDI2MC45NTQ5OTggMTkyLjQwNSAmIzEwO0wgMjY1LjEzOTk5OSAxOTIuNDA1ICYjMTA7TCAyNjkuMzI1IDE5Mi40MDUgJiMxMDtMIDI3My41MTAwMDEgMTkyLjQwNSAmIzEwO0wgMjc3LjY5NTAwMiAxOTIuNDA1ICYjMTA7TCAyODEuODc5OTk4IDE5Mi40MDUgJiMxMDtMIDI4Ni4wNjQ5OTkgMTkyLjQwNSAmIzEwO0wgMjkwLjI1IDE5Mi40MDUgJiMxMDtMIDI5NC40MzUwMDEgMTkyLjQwNSAmIzEwO0wgMjk4LjYyIDE5Mi40MDUgJiMxMDtMIDMwMi44MDUgMTkyLjQwNSAmIzEwO0wgMzA2Ljk4OTk5OSAxOTIuNDA1ICYjMTA7TCAzMTEuMTc1IDE5Mi40MDUgJiMxMDtMIDMxNS4zNiAxOTIuNDA1ICYjMTA7TCAzMTkuNTQ1IDE5Mi40MDUgJiMxMDtMIDMyMy43MyAxOTIuNDA1ICYjMTA7TCAzMjcuOTE1IDE5Mi40MDUgJiMxMDtMIDMzMi4xIDE5Mi40MDUgJiMxMDtMIDMzNi4yODUgMTgwLjE4MTI1ICYjMTA7TCAzNDAuNDcgMTY3Ljk1NzUgJiMxMDtMIDM0NC42NTUgMTU1LjczMzc0OSAmIzEwO0wgMzQ4Ljg0IDE0My41MDk5OTkgJiMxMDtMIDM1My4wMjUgMTMxLjI4NjI1ICYjMTA7TCAzNTcuMjEwMDAxIDExOS4wNjI0OTcgJiMxMDtMIDM2MS4zOTUgMTA2LjgzODc1MSAmIzEwO0wgMzY1LjU4IDk0LjYxNDk5OSAmIzEwO0wgMzY5Ljc2NDk5OSA4Mi4zOTEyNTMgJiMxMDtMIDM3My45NSA3MC4xNjc1ICYjMTA7TCAzNzguMTM1MDAxIDU3Ljk0Mzc0NyAmIzEwO0wgMzgyLjMyMDAwMiA0NS43MTk5OTQgJiMxMDtMIDM4Ni41MDQ5OTggMzMuNDk2MjU2ICYjMTA7TCAzOTAuNjg5OTk5IDIxLjI3MjUwMyAmIzEwO0wgMzk0Ljg3NSA5LjA0ODc1ICYjMTA7TCAzOTguMzE1MzUzIC0xIi8+JiN4YTsgICA8L2c+JiN4YTsgICA8ZyBpZD0ibGluZTJkXzE2Ij4mI3hhOyAgICA8cGF0aCBzdHlsZT0iZmlsbDogbm9uZTsgc3Ryb2tlOiAjYzM3OTM1OyBzdHJva2Utd2lkdGg6IDEuNTsgc3Ryb2tlLWxpbmVjYXA6IHNxdWFyZSIgY2xpcC1wYXRoPSJ1cmwoI3BiYWM4MzFkZGJhKSIgZD0iTSAxMDEuOTI1IDE5Mi40MDQxOTcgJiMxMDtMIDEyMi44NSAxOTIuNDAzNjc2ICYjMTA7TCAxNDMuNzc1IDE5Mi40MDI4MTYgJiMxMDtMIDE2NC43IDE5Mi40MDE0ICYjMTA7TCAxODUuNjI1IDE5Mi4zOTkwNjQgJiMxMDtMIDIwNi41NSAxOTIuMzk1MjE0ICYjMTA7TCAyMjcuNDc1IDE5Mi4zODg4NjUgJiMxMDtMIDI0OC40IDE5Mi4zNzgzOTggJiMxMDtMIDI2OS4zMjUgMTkyLjM2MTE0MSAmIzEwO0wgMjkwLjI1IDE5Mi4zMzI2ODkgJiMxMDtMIDMxMS4xNzUgMTkyLjI4NTc3OSAmIzEwO0wgMzMyLjEgMTkyLjIwODQzOCAmIzEwO0wgMzUzLjAyNSAxOTIuMDgwOTI0ICYjMTA7TCAzNzMuOTUgMTkxLjg3MDY4OSAmIzEwO0wgMzk0Ljg3NSAxOTEuNTI0MDY5ICYjMTA7TCA0MTUuOCAxOTAuOTUyNTkxICYjMTA7TCA0MzYuNzI1IDE5MC4wMTAzODIgJiMxMDtMIDQ1Ny42NSAxODguNDU2OTQyICYjMTA7TCA0NzguNTc1IDE4NS44OTU3NTMgJiMxMDtMIDQ5OS41IDE4MS42NzMwNjYgJiMxMDtMIDUyMC40MjUgMTc0LjcxMTAzMyAmIzEwO0wgNTQxLjM1IDE2My4yMzI1ODEgJiMxMDtMIDU2Mi4yNzUgMTQ0LjMwNzgxMSIvPiYjeGE7ICAgPC9nPiYjeGE7ICAgPGcgaWQ9ImxpbmUyZF8xNyI+JiN4YTsgICAgPHBhdGggc3R5bGU9ImZpbGw6IG5vbmU7IHN0cm9rZTogIzU3OGVhMTsgc3Ryb2tlLXdpZHRoOiAxLjU7IHN0cm9rZS1saW5lY2FwOiBzcXVhcmUiIGNsaXAtcGF0aD0idXJsKCNwYmFjODMxZGRiYSkiIGQ9Ik0gODUuMTg0OTk2IDE5NC4zNzUyOTMgJiMxMDtMIDg5LjM2OTk5MiAxOTQuNTQ0OTg5ICYjMTA7TCA5My41NTUwMDggMTk0LjcyODU0ICYjMTA7TCA5Ny43NDAwMDQgMTk0LjkyNjk3MyAmIzEwO0wgMTAxLjkyNSAxOTUuMTQxMzc5ICYjMTA7TCAxMDYuMTA5OTk2IDE5NS4zNzI5MTEgJiMxMDtMIDExMC4yOTQ5OTIgMTk1LjYyMjc4NSAmIzEwO0wgMTE0LjQ4MDAwOCAxOTUuODkyMjg0ICYjMTA7TCAxMTguNjY1MDA0IDE5Ni4xODI3NDggJiMxMDtMIDEyMi44NSAxOTYuNDk1NTg3ICYjMTA7TCAxMjcuMDM0OTk2IDE5Ni44MzIyNjUgJiMxMDtMIDEzMS4yMTk5OTIgMTk3LjE5NDMwNyAmIzEwO0wgMTM1LjQwNTAwOCAxOTcuNTgzMjg3ICYjMTA7TCAxMzkuNTkwMDA0IDE5OC4wMDA4MjQgJiMxMDtMIDE0My43NzUgMTk4LjQ0ODU3NCAmIzEwO0wgMTQ3Ljk1OTk5NiAxOTguOTI4MjE4ICYjMTA7TCAxNTIuMTQ0OTkyIDE5OS40NDE0NDggJiMxMDtMIDE1Ni4zMzAwMDggMTk5Ljk4OTk1MiAmIzEwO0wgMTYwLjUxNTAwNCAyMDAuNTc1Mzg1ICYjMTA7TCAxNjQuNyAyMDEuMTk5MzU3ICYjMTA7TCAxNjguODg0OTk2IDIwMS44NjMzOTQgJiMxMDtMIDE3My4wNzAwMDIgMjAyLjU2ODkwNSAmIzEwO0wgMTc3LjI1NDk5OCAyMDMuMzE3MTM4ICYjMTA7TCAxODEuNDQwMDA0IDIwNC4xMDkxNCAmIzEwO0wgMTg1LjYyNSAyMDQuOTQ1Njg5ICYjMTA7TCAxODkuODA5OTk2IDIwNS44MjcyMzYgJiMxMDtMIDE5My45OTUwMDIgMjA2Ljc1Mzg0MSAmIzEwO0wgMTk4LjE3OTk5OCAyMDcuNzI1MDY0ICYjMTA7TCAyMDIuMzY1MDA0IDIwOC43Mzk5MDIgJiMxMDtMIDIwNi41NSAyMDkuNzk2NjYyICYjMTA7TCAyMTAuNzM0OTk2IDIxMC44OTI4NTEgJiMxMDtMIDIxNC45MjAwMDIgMjEyLjAyNTA1OSAmIzEwO0wgMjE5LjEwNDk5OCAyMTMuMTg4ODA3ICYjMTA7TCAyMjMuMjkwMDA0IDIxNC4zNzg0MDEgJiMxMDtMIDIyNy40NzUgMjE1LjU4Njc4NCAmIzEwO0wgMjMxLjY1OTk5NiAyMTYuODA1Mzc1ICYjMTA7TCAyMzUuODQ1MDAyIDIxOC4wMjM4NzggJiMxMDtMIDI0MC4wMjk5OTggMjE5LjIzMDE1ICYjMTA7TCAyNDQuMjE1MDA0IDIyMC40MTAwMiAmIzEwO0wgMjQ4LjQgMjIxLjU0NzEzNCAmIzEwO0wgMjUyLjU4NTAwMSAyMjIuNjIyODU2ICYjMTA7TCAyNTYuNzcwMDAyIDIyMy42MTYxMzQgJiMxMDtMIDI2MC45NTQ5OTggMjI0LjUwMzQ2MSAmIzEwO0wgMjY1LjEzOTk5OSAyMjUuMjU4ODQzICYjMTA7TCAyNjkuMzI1IDIyNS44NTM4NjMgJiMxMDtMIDI3My41MTAwMDEgMjI2LjI1Nzc2NSAmIzEwO0wgMjc3LjY5NTAwMiAyMjYuNDM3Njk1ICYjMTA7TCAyODEuODc5OTk4IDIyNi4zNTg5NDUgJiMxMDtMIDI4Ni4wNjQ5OTkgMjI1Ljk4NTMzNyAmIzEwO0wgMjkwLjI1IDIyNS4yNzk3MjggJiMxMDtMIDI5NC40MzUwMDEgMjI0LjIwNDUyNiAmIzEwO0wgMjk4LjYyIDIyMi43MjIzOTUgJiMxMDtMIDMwMi44MDUgMjIwLjc5NjkyOCAmIzEwO0wgMzA2Ljk4OTk5OSAyMTguMzkzNDU1ICYjMTA7TCAzMTEuMTc1IDIxNS40Nzk4MTQgJiMxMDtMIDMxNS4zNiAyMTIuMDI3MTY5ICYjMTA7TCAzMTkuNTQ1IDIwOC4wMTA3MjUgJiMxMDtMIDMyMy43MyAyMDMuNDEwNDM0ICYjMTA7TCAzMjcuOTE1IDE5OC4yMTE1MzYgJiMxMDtMIDMzMi4xIDE5Mi40MDUgJiMxMDtMIDMzNi4yODUgMTg1Ljk4Nzc4NiAmIzEwO0wgMzQwLjQ3IDE3OC45NjI5MzQgJiMxMDtMIDM0NC42NTUgMTcxLjMzOTQ3NCAmIzEwO0wgMzQ4Ljg0IDE2My4xMzIxNjggJiMxMDtMIDM1My4wMjUgMTU0LjM2MTA2MiAmIzEwO0wgMzU3LjIxMDAwMSAxNDUuMDUwOTUgJiMxMDtMIDM2MS4zOTUgMTM1LjIzMDY4MSAmIzEwO0wgMzY1LjU4IDEyNC45MzIzOTMgJiMxMDtMIDM2OS43NjQ5OTkgMTE0LjE5MDc4NyAmIzEwO0wgMzczLjk1IDEwMy4wNDIyMjUgJiMxMDtMIDM3OC4xMzUwMDEgOTEuNTI0MDg0ICYjMTA7TCAzODIuMzIwMDAyIDc5LjY3MzkzMiAmIzEwO0wgMzg2LjUwNDk5OCA2Ny41Mjg5NDcgJiMxMDtMIDM5MC42ODk5OTkgNTUuMTI1MjYxICYjMTA7TCAzOTQuODc1IDQyLjQ5NzYyICYjMTA7TCAzOTkuMDYwMDAxIDI5LjY3ODg0ICYjMTA7TCA0MDMuMjQ1MDAyIDE2LjY5OTY5NyAmIzEwO0wgNDA3LjQyOTk5OCAzLjU4ODY1ICYjMTA7TCA0MDguODgyOTMyIC0xIi8+JiN4YTsgICA8L2c+JiN4YTsgICA8ZyBpZD0icGF0Y2hfMyI+JiN4YTsgICAgPHBhdGggc3R5bGU9ImZpbGw6IG5vbmU7IHN0cm9rZTogIzAwMDAwMDsgc3Ryb2tlLXdpZHRoOiAwLjg7IHN0cm9rZS1saW5lam9pbjogbWl0ZXI7IHN0cm9rZS1saW5lY2FwOiBzcXVhcmUiIGQ9Ik0gMzMyLjEgMzM5LjA5ICYjMTA7TCAzMzIuMSA0NS43MiIvPiYjeGE7ICAgPC9nPiYjeGE7ICAgPGcgaWQ9InBhdGNoXzQiPiYjeGE7ICAgIDxwYXRoIHN0eWxlPSJmaWxsOiBub25lOyBzdHJva2U6ICMwMDAwMDA7IHN0cm9rZS13aWR0aDogMC44OyBzdHJva2UtbGluZWpvaW46IG1pdGVyOyBzdHJva2UtbGluZWNhcDogc3F1YXJlIiBkPSJNIDgxIDE5Mi40MDUgJiMxMDtMIDU4My4yIDE5Mi40MDUiLz4mI3hhOyAgIDwvZz4mI3hhOyAgIDxnIGlkPSJsZWdlbmRfMSI+JiN4YTsgICAgPGcgaWQ9InBhdGNoXzUiPiYjeGE7ICAgICA8cGF0aCBzdHlsZT0iZmlsbDogI2ZmZmZmZjsgb3BhY2l0eTogMC44OyBzdHJva2U6ICNjY2NjY2M7IHN0cm9rZS1saW5lam9pbjogbWl0ZXIiIGQ9Ik0gODggMTI3LjExMDYyNSAmIzEwO0wgMTYxLjUyMDMxMiAxMjcuMTEwNjI1ICYjMTA7USAxNjMuNTIwMzEyIDEyNy4xMTA2MjUgMTYzLjUyMDMxMiAxMjUuMTEwNjI1ICYjMTA7TCAxNjMuNTIwMzEyIDUyLjcyICYjMTA7USAxNjMuNTIwMzEyIDUwLjcyIDE2MS41MjAzMTIgNTAuNzIgJiMxMDtMIDg4IDUwLjcyICYjMTA7USA4NiA1MC43MiA4NiA1Mi43MiAmIzEwO0wgODYgMTI1LjExMDYyNSAmIzEwO1EgODYgMTI3LjExMDYyNSA4OCAxMjcuMTEwNjI1ICYjMTA7eiIvPiYjeGE7ICAgIDwvZz4mI3hhOyAgICA8ZyBpZD0ibGluZTJkXzE4Ij4mI3hhOyAgICAgPHBhdGggc3R5bGU9ImZpbGw6IG5vbmU7IHN0cm9rZTogIzU3MzVjMzsgc3Ryb2tlLXdpZHRoOiAxLjU7IHN0cm9rZS1saW5lY2FwOiBzcXVhcmUiIGQ9Ik0gOTAgNTguODE4NDM4ICYjMTA7TCAxMTAgNTguODE4NDM4Ii8+JiN4YTsgICAgPC9nPiYjeGE7ICAgIDxnIGlkPSJsaW5lMmRfMTkiLz4mI3hhOyAgICA8ZyBpZD0idGV4dF8xNSI+JiN4YTsgICAgICYjeGE7ICAgICA8ZyB0cmFuc2Zvcm09InRyYW5zbGF0ZSgxMTggNjIuMzE4NDM4KSBzY2FsZSgwLjEgLTAuMSkiPiYjeGE7ICAgICAgPGRlZnM+JiN4YTsgICAgICAgPHBhdGggdHJhbnNmb3JtPSJzY2FsZSgwLjAxNTYyNSkiIGQ9Ik0gMzQyNSA0NTEzICYjMTA7TCAzNDI1IDM4OTcgJiMxMDtRIDMwNjYgNDA2OSAyNzQ3IDQxNTMgJiMxMDtRIDI0MjggNDIzOCAyMTMxIDQyMzggJiMxMDtRIDE2MTYgNDIzOCAxMzM2IDQwMzggJiMxMDtRIDEwNTYgMzgzOCAxMDU2IDM0NjkgJiMxMDtRIDEwNTYgMzE1OSAxMjQyIDMwMDEgJiMxMDtRIDE0MjggMjg0NCAxOTQ3IDI3NDcgJiMxMDtMIDIzMjggMjY2OSAmIzEwO1EgMzAzNCAyNTM0IDMzNzAgMjE5NSAmIzEwO1EgMzcwNiAxODU2IDM3MDYgMTI4OCAmIzEwO1EgMzcwNiA2MDkgMzI1MSAyNTkgJiMxMDtRIDI3OTcgLTkxIDE5MTkgLTkxICYjMTA7USAxNTg4IC05MSAxMjE0IC0xNiAmIzEwO1EgODQxIDU5IDQ0MSAyMDYgJiMxMDtMIDQ0MSA4NTYgJiMxMDtRIDgyNSA2NDEgMTE5NCA1MzEgJiMxMDtRIDE1NjMgNDIyIDE5MTkgNDIyICYjMTA7USAyNDU5IDQyMiAyNzUzIDYzNCAmIzEwO1EgMzA0NyA4NDcgMzA0NyAxMjQxICYjMTA7USAzMDQ3IDE1ODQgMjgzNiAxNzc4ICYjMTA7USAyNjI1IDE5NzIgMjE0NCAyMDY5ICYjMTA7TCAxNzU5IDIxNDQgJiMxMDtRIDEwNTMgMjI4NCA3MzcgMjU4NCAmIzEwO1EgNDIyIDI4ODQgNDIyIDM0MTkgJiMxMDtRIDQyMiA0MDM4IDg1OCA0Mzk0ICYjMTA7USAxMjk0IDQ3NTAgMjA1OSA0NzUwICYjMTA7USAyMzg4IDQ3NTAgMjcyOCA0NjkwICYjMTA7USAzMDY5IDQ2MzEgMzQyNSA0NTEzICYjMTA7eiIgaWQ9IkRlamFWdVNhbnMtNTMiLz4mI3hhOyAgICAgICA8cGF0aCB0cmFuc2Zvcm09InNjYWxlKDAuMDE1NjI1KSIgZD0iTSA2MDMgMzUwMCAmIzEwO0wgMTE3OCAzNTAwICYjMTA7TCAxMTc4IDAgJiMxMDtMIDYwMyAwICYjMTA7TCA2MDMgMzUwMCAmIzEwO3omIzEwO00gNjAzIDQ4NjMgJiMxMDtMIDExNzggNDg2MyAmIzEwO0wgMTE3OCA0MTM0ICYjMTA7TCA2MDMgNDEzNCAmIzEwO0wgNjAzIDQ4NjMgJiMxMDt6IiBpZD0iRGVqYVZ1U2Fucy02OSIvPiYjeGE7ICAgICAgIDxwYXRoIHRyYW5zZm9ybT0ic2NhbGUoMC4wMTU2MjUpIiBkPSJNIDI5MDYgMTc5MSAmIzEwO1EgMjkwNiAyNDE2IDI2NDggMjc1OSAmIzEwO1EgMjM5MSAzMTAzIDE5MjUgMzEwMyAmIzEwO1EgMTQ2MyAzMTAzIDEyMDUgMjc1OSAmIzEwO1EgOTQ3IDI0MTYgOTQ3IDE3OTEgJiMxMDtRIDk0NyAxMTY5IDEyMDUgODI1ICYjMTA7USAxNDYzIDQ4MSAxOTI1IDQ4MSAmIzEwO1EgMjM5MSA0ODEgMjY0OCA4MjUgJiMxMDtRIDI5MDYgMTE2OSAyOTA2IDE3OTEgJiMxMDt6JiMxMDtNIDM0ODEgNDM0ICYjMTA7USAzNDgxIC00NTkgMzA4NCAtODk1ICYjMTA7USAyNjg4IC0xMzMxIDE4NjkgLTEzMzEgJiMxMDtRIDE1NjYgLTEzMzEgMTI5NyAtMTI4NiAmIzEwO1EgMTAyOCAtMTI0MSA3NzUgLTExNDcgJiMxMDtMIDc3NSAtNTg4ICYjMTA7USAxMDI4IC03MjUgMTI3NSAtNzkwICYjMTA7USAxNTIyIC04NTYgMTc3OCAtODU2ICYjMTA7USAyMzQ0IC04NTYgMjYyNSAtNTYxICYjMTA7USAyOTA2IC0yNjYgMjkwNiAzMzEgJiMxMDtMIDI5MDYgNjE2ICYjMTA7USAyNzI4IDMwNiAyNDUwIDE1MyAmIzEwO1EgMjE3MiAwIDE3ODQgMCAmIzEwO1EgMTE0MSAwIDc0NyA0OTAgJiMxMDtRIDM1MyA5ODEgMzUzIDE3OTEgJiMxMDtRIDM1MyAyNjAzIDc0NyAzMDkzICYjMTA7USAxMTQxIDM1ODQgMTc4NCAzNTg0ICYjMTA7USAyMTcyIDM1ODQgMjQ1MCAzNDMxICYjMTA7USAyNzI4IDMyNzggMjkwNiAyOTY5ICYjMTA7TCAyOTA2IDM1MDAgJiMxMDtMIDM0ODEgMzUwMCAmIzEwO0wgMzQ4MSA0MzQgJiMxMDt6IiBpZD0iRGVqYVZ1U2Fucy02NyIvPiYjeGE7ICAgICAgIDxwYXRoIHRyYW5zZm9ybT0ic2NhbGUoMC4wMTU2MjUpIiBkPSJNIDMzMjggMjgyOCAmIzEwO1EgMzU0NCAzMjE2IDM4NDQgMzQwMCAmIzEwO1EgNDE0NCAzNTg0IDQ1NTAgMzU4NCAmIzEwO1EgNTA5NyAzNTg0IDUzOTQgMzIwMSAmIzEwO1EgNTY5MSAyODE5IDU2OTEgMjExMyAmIzEwO0wgNTY5MSAwICYjMTA7TCA1MTEzIDAgJiMxMDtMIDUxMTMgMjA5NCAmIzEwO1EgNTExMyAyNTk3IDQ5MzQgMjg0MCAmIzEwO1EgNDc1NiAzMDg0IDQzOTEgMzA4NCAmIzEwO1EgMzk0NCAzMDg0IDM2ODQgMjc4NyAmIzEwO1EgMzQyNSAyNDkxIDM0MjUgMTk3OCAmIzEwO0wgMzQyNSAwICYjMTA7TCAyODQ3IDAgJiMxMDtMIDI4NDcgMjA5NCAmIzEwO1EgMjg0NyAyNjAwIDI2NjkgMjg0MiAmIzEwO1EgMjQ5MSAzMDg0IDIxMTkgMzA4NCAmIzEwO1EgMTY3OCAzMDg0IDE0MTggMjc4NiAmIzEwO1EgMTE1OSAyNDg4IDExNTkgMTk3OCAmIzEwO0wgMTE1OSAwICYjMTA7TCA1ODEgMCAmIzEwO0wgNTgxIDM1MDAgJiMxMDtMIDExNTkgMzUwMCAmIzEwO0wgMTE1OSAyOTU2ICYjMTA7USAxMzU2IDMyNzggMTYzMSAzNDMxICYjMTA7USAxOTA2IDM1ODQgMjI4NCAzNTg0ICYjMTA7USAyNjY2IDM1ODQgMjkzMyAzMzkwICYjMTA7USAzMjAwIDMxOTcgMzMyOCAyODI4ICYjMTA7eiIgaWQ9IkRlamFWdVNhbnMtNmQiLz4mI3hhOyAgICAgICA8cGF0aCB0cmFuc2Zvcm09InNjYWxlKDAuMDE1NjI1KSIgZD0iTSAxOTU5IDMwOTcgJiMxMDtRIDE0OTcgMzA5NyAxMjI4IDI3MzYgJiMxMDtRIDk1OSAyMzc1IDk1OSAxNzQ3ICYjMTA7USA5NTkgMTExOSAxMjI2IDc1OCAmIzEwO1EgMTQ5NCAzOTcgMTk1OSAzOTcgJiMxMDtRIDI0MTkgMzk3IDI2ODcgNzU5ICYjMTA7USAyOTU2IDExMjIgMjk1NiAxNzQ3ICYjMTA7USAyOTU2IDIzNjkgMjY4NyAyNzMzICYjMTA7USAyNDE5IDMwOTcgMTk1OSAzMDk3ICYjMTA7eiYjMTA7TSAxOTU5IDM1ODQgJiMxMDtRIDI3MDkgMzU4NCAzMTM3IDMwOTYgJiMxMDtRIDM1NjYgMjYwOSAzNTY2IDE3NDcgJiMxMDtRIDM1NjYgODg4IDMxMzcgMzk4ICYjMTA7USAyNzA5IC05MSAxOTU5IC05MSAmIzEwO1EgMTIwNiAtOTEgNzc5IDM5OCAmIzEwO1EgMzUzIDg4OCAzNTMgMTc0NyAmIzEwO1EgMzUzIDI2MDkgNzc5IDMwOTYgJiMxMDtRIDEyMDYgMzU4NCAxOTU5IDM1ODQgJiMxMDt6IiBpZD0iRGVqYVZ1U2Fucy02ZiIvPiYjeGE7ICAgICAgIDxwYXRoIHRyYW5zZm9ybT0ic2NhbGUoMC4wMTU2MjUpIiBkPSJNIDI5MDYgMjk2OSAmIzEwO0wgMjkwNiA0ODYzICYjMTA7TCAzNDgxIDQ4NjMgJiMxMDtMIDM0ODEgMCAmIzEwO0wgMjkwNiAwICYjMTA7TCAyOTA2IDUyNSAmIzEwO1EgMjcyNSAyMTMgMjQ0OCA2MSAmIzEwO1EgMjE3MiAtOTEgMTc4NCAtOTEgJiMxMDtRIDExNTAgLTkxIDc1MSA0MTUgJiMxMDtRIDM1MyA5MjIgMzUzIDE3NDcgJiMxMDtRIDM1MyAyNTcyIDc1MSAzMDc4ICYjMTA7USAxMTUwIDM1ODQgMTc4NCAzNTg0ICYjMTA7USAyMTcyIDM1ODQgMjQ0OCAzNDMyICYjMTA7USAyNzI1IDMyODEgMjkwNiAyOTY5ICYjMTA7eiYjMTA7TSA5NDcgMTc0NyAmIzEwO1EgOTQ3IDExMTMgMTIwOCA3NTIgJiMxMDtRIDE0NjkgMzkxIDE5MjUgMzkxICYjMTA7USAyMzgxIDM5MSAyNjQzIDc1MiAmIzEwO1EgMjkwNiAxMTEzIDI5MDYgMTc0NyAmIzEwO1EgMjkwNiAyMzgxIDI2NDMgMjc0MiAmIzEwO1EgMjM4MSAzMTAzIDE5MjUgMzEwMyAmIzEwO1EgMTQ2OSAzMTAzIDEyMDggMjc0MiAmIzEwO1EgOTQ3IDIzODEgOTQ3IDE3NDcgJiMxMDt6IiBpZD0iRGVqYVZ1U2Fucy02NCIvPiYjeGE7ICAgICAgPC9kZWZzPiYjeGE7ICAgICAgPHVzZSB4bGluazpocmVmPSIjRGVqYVZ1U2Fucy01MyIvPiYjeGE7ICAgICAgPHVzZSB4PSI2My40NzY1NjIiIHhsaW5rOmhyZWY9IiNEZWphVnVTYW5zLTY5Ii8+JiN4YTsgICAgICA8dXNlIHg9IjkxLjI1OTc2NiIgeGxpbms6aHJlZj0iI0RlamFWdVNhbnMtNjciLz4mI3hhOyAgICAgIDx1c2UgeD0iMTU0LjczNjMyOCIgeGxpbms6aHJlZj0iI0RlamFWdVNhbnMtNmQiLz4mI3hhOyAgICAgIDx1c2UgeD0iMjUyLjE0ODQzOCIgeGxpbms6aHJlZj0iI0RlamFWdVNhbnMtNmYiLz4mI3hhOyAgICAgIDx1c2UgeD0iMzEzLjMzMDA3OCIgeGxpbms6aHJlZj0iI0RlamFWdVNhbnMtNjkiLz4mI3hhOyAgICAgIDx1c2UgeD0iMzQxLjExMzI4MSIgeGxpbms6aHJlZj0iI0RlamFWdVNhbnMtNjQiLz4mI3hhOyAgICAgPC9nPiYjeGE7ICAgIDwvZz4mI3hhOyAgICA8ZyBpZD0ibGluZTJkXzIwIj4mI3hhOyAgICAgPHBhdGggc3R5bGU9ImZpbGw6IG5vbmU7IHN0cm9rZTogI2FkZTIxNjsgc3Ryb2tlLXdpZHRoOiAxLjU7IHN0cm9rZS1saW5lY2FwOiBzcXVhcmUiIGQ9Ik0gOTAgNzMuNDk2NTYzICYjMTA7TCAxMTAgNzMuNDk2NTYzIi8+JiN4YTsgICAgPC9nPiYjeGE7ICAgIDxnIGlkPSJsaW5lMmRfMjEiLz4mI3hhOyAgICA8ZyBpZD0idGV4dF8xNiI+JiN4YTsgICAgICYjeGE7ICAgICA8ZyB0cmFuc2Zvcm09InRyYW5zbGF0ZSgxMTggNzYuOTk2NTYzKSBzY2FsZSgwLjEgLTAuMSkiPiYjeGE7ICAgICAgPGRlZnM+JiN4YTsgICAgICAgPHBhdGggdHJhbnNmb3JtPSJzY2FsZSgwLjAxNTYyNSkiIGQ9Ik0gLTE5IDQ2NjYgJiMxMDtMIDM5MjggNDY2NiAmIzEwO0wgMzkyOCA0MTM0ICYjMTA7TCAyMjcyIDQxMzQgJiMxMDtMIDIyNzIgMCAmIzEwO0wgMTYzOCAwICYjMTA7TCAxNjM4IDQxMzQgJiMxMDtMIC0xOSA0MTM0ICYjMTA7TCAtMTkgNDY2NiAmIzEwO3oiIGlkPSJEZWphVnVTYW5zLTU0Ii8+JiN4YTsgICAgICAgPHBhdGggdHJhbnNmb3JtPSJzY2FsZSgwLjAxNTYyNSkiIGQ9Ik0gMjE5NCAxNzU5ICYjMTA7USAxNDk3IDE3NTkgMTIyOCAxNjAwICYjMTA7USA5NTkgMTQ0MSA5NTkgMTA1NiAmIzEwO1EgOTU5IDc1MCAxMTYxIDU3MCAmIzEwO1EgMTM2MyAzOTEgMTcwOSAzOTEgJiMxMDtRIDIxODggMzkxIDI0NzcgNzMwICYjMTA7USAyNzY2IDEwNjkgMjc2NiAxNjMxICYjMTA7TCAyNzY2IDE3NTkgJiMxMDtMIDIxOTQgMTc1OSAmIzEwO3omIzEwO00gMzM0MSAxOTk3ICYjMTA7TCAzMzQxIDAgJiMxMDtMIDI3NjYgMCAmIzEwO0wgMjc2NiA1MzEgJiMxMDtRIDI1NjkgMjEzIDIyNzUgNjEgJiMxMDtRIDE5ODEgLTkxIDE1NTYgLTkxICYjMTA7USAxMDE5IC05MSA3MDEgMjExICYjMTA7USAzODQgNTEzIDM4NCAxMDE5ICYjMTA7USAzODQgMTYwOSA3NzkgMTkwOSAmIzEwO1EgMTE3NSAyMjA5IDE5NTkgMjIwOSAmIzEwO0wgMjc2NiAyMjA5ICYjMTA7TCAyNzY2IDIyNjYgJiMxMDtRIDI3NjYgMjY2MyAyNTA1IDI4ODAgJiMxMDtRIDIyNDQgMzA5NyAxNzcyIDMwOTcgJiMxMDtRIDE0NzIgMzA5NyAxMTg3IDMwMjUgJiMxMDtRIDkwMyAyOTUzIDY0MSAyODA5ICYjMTA7TCA2NDEgMzM0MSAmIzEwO1EgOTU2IDM0NjMgMTI1MyAzNTIzICYjMTA7USAxNTUwIDM1ODQgMTgzMSAzNTg0ICYjMTA7USAyNTkxIDM1ODQgMjk2NiAzMTkwICYjMTA7USAzMzQxIDI3OTcgMzM0MSAxOTk3ICYjMTA7eiIgaWQ9IkRlamFWdVNhbnMtNjEiLz4mI3hhOyAgICAgICA8cGF0aCB0cmFuc2Zvcm09InNjYWxlKDAuMDE1NjI1KSIgZD0iTSAzNTEzIDIxMTMgJiMxMDtMIDM1MTMgMCAmIzEwO0wgMjkzOCAwICYjMTA7TCAyOTM4IDIwOTQgJiMxMDtRIDI5MzggMjU5MSAyNzQ0IDI4MzcgJiMxMDtRIDI1NTAgMzA4NCAyMTYzIDMwODQgJiMxMDtRIDE2OTcgMzA4NCAxNDI4IDI3ODcgJiMxMDtRIDExNTkgMjQ5MSAxMTU5IDE5NzggJiMxMDtMIDExNTkgMCAmIzEwO0wgNTgxIDAgJiMxMDtMIDU4MSAzNTAwICYjMTA7TCAxMTU5IDM1MDAgJiMxMDtMIDExNTkgMjk1NiAmIzEwO1EgMTM2NiAzMjcyIDE2NDUgMzQyOCAmIzEwO1EgMTkyNSAzNTg0IDIyOTEgMzU4NCAmIzEwO1EgMjg5NCAzNTg0IDMyMDMgMzIxMSAmIzEwO1EgMzUxMyAyODM4IDM1MTMgMjExMyAmIzEwO3oiIGlkPSJEZWphVnVTYW5zLTZlIi8+JiN4YTsgICAgICAgPHBhdGggdHJhbnNmb3JtPSJzY2FsZSgwLjAxNTYyNSkiIGQ9Ik0gMzUxMyAyMTEzICYjMTA7TCAzNTEzIDAgJiMxMDtMIDI5MzggMCAmIzEwO0wgMjkzOCAyMDk0ICYjMTA7USAyOTM4IDI1OTEgMjc0NCAyODM3ICYjMTA7USAyNTUwIDMwODQgMjE2MyAzMDg0ICYjMTA7USAxNjk3IDMwODQgMTQyOCAyNzg3ICYjMTA7USAxMTU5IDI0OTEgMTE1OSAxOTc4ICYjMTA7TCAxMTU5IDAgJiMxMDtMIDU4MSAwICYjMTA7TCA1ODEgNDg2MyAmIzEwO0wgMTE1OSA0ODYzICYjMTA7TCAxMTU5IDI5NTYgJiMxMDtRIDEzNjYgMzI3MiAxNjQ1IDM0MjggJiMxMDtRIDE5MjUgMzU4NCAyMjkxIDM1ODQgJiMxMDtRIDI4OTQgMzU4NCAzMjAzIDMyMTEgJiMxMDtRIDM1MTMgMjgzOCAzNTEzIDIxMTMgJiMxMDt6IiBpZD0iRGVqYVZ1U2Fucy02OCIvPiYjeGE7ICAgICAgPC9kZWZzPiYjeGE7ICAgICAgPHVzZSB4bGluazpocmVmPSIjRGVqYVZ1U2Fucy01NCIvPiYjeGE7ICAgICAgPHVzZSB4PSI0NC41ODM5ODQiIHhsaW5rOmhyZWY9IiNEZWphVnVTYW5zLTYxIi8+JiN4YTsgICAgICA8dXNlIHg9IjEwNS44NjMyODEiIHhsaW5rOmhyZWY9IiNEZWphVnVTYW5zLTZlIi8+JiN4YTsgICAgICA8dXNlIHg9IjE2OS4yNDIxODgiIHhsaW5rOmhyZWY9IiNEZWphVnVTYW5zLTY4Ii8+JiN4YTsgICAgIDwvZz4mI3hhOyAgICA8L2c+JiN4YTsgICAgPGcgaWQ9ImxpbmUyZF8yMiI+JiN4YTsgICAgIDxwYXRoIHN0eWxlPSJmaWxsOiBub25lOyBzdHJva2U6ICNiMDI4ZDA7IHN0cm9rZS13aWR0aDogMS41OyBzdHJva2UtbGluZWNhcDogc3F1YXJlIiBkPSJNIDkwIDg4LjE3NDY4OCAmIzEwO0wgMTEwIDg4LjE3NDY4OCIvPiYjeGE7ICAgIDwvZz4mI3hhOyAgICA8ZyBpZD0ibGluZTJkXzIzIi8+JiN4YTsgICAgPGcgaWQ9InRleHRfMTciPiYjeGE7ICAgICAmI3hhOyAgICAgPGcgdHJhbnNmb3JtPSJ0cmFuc2xhdGUoMTE4IDkxLjY3NDY4OCkgc2NhbGUoMC4xIC0wLjEpIj4mI3hhOyAgICAgIDxkZWZzPiYjeGE7ICAgICAgIDxwYXRoIHRyYW5zZm9ybT0ic2NhbGUoMC4wMTU2MjUpIiBkPSJNIDI4NDEgMjE4OCAmIzEwO1EgMzA0NCAyMTE5IDMyMzYgMTg5NCAmIzEwO1EgMzQyOCAxNjY5IDM2MjIgMTI3NSAmIzEwO0wgNDI2MyAwICYjMTA7TCAzNTg0IDAgJiMxMDtMIDI5ODggMTE5NyAmIzEwO1EgMjc1NiAxNjY2IDI1MzkgMTgxOSAmIzEwO1EgMjMyMiAxOTcyIDE5NDcgMTk3MiAmIzEwO0wgMTI1OSAxOTcyICYjMTA7TCAxMjU5IDAgJiMxMDtMIDYyOCAwICYjMTA7TCA2MjggNDY2NiAmIzEwO0wgMjA1MyA0NjY2ICYjMTA7USAyODUzIDQ2NjYgMzI0NyA0MzMxICYjMTA7USAzNjQxIDM5OTcgMzY0MSAzMzIyICYjMTA7USAzNjQxIDI4ODEgMzQzNiAyNTkwICYjMTA7USAzMjMxIDIzMDAgMjg0MSAyMTg4ICYjMTA7eiYjMTA7TSAxMjU5IDQxNDcgJiMxMDtMIDEyNTkgMjQ5MSAmIzEwO0wgMjA1MyAyNDkxICYjMTA7USAyNTA5IDI0OTEgMjc0MiAyNzAyICYjMTA7USAyOTc1IDI5MTMgMjk3NSAzMzIyICYjMTA7USAyOTc1IDM3MzEgMjc0MiAzOTM5ICYjMTA7USAyNTA5IDQxNDcgMjA1MyA0MTQ3ICYjMTA7TCAxMjU5IDQxNDcgJiMxMDt6IiBpZD0iRGVqYVZ1U2Fucy01MiIvPiYjeGE7ICAgICAgIDxwYXRoIHRyYW5zZm9ybT0ic2NhbGUoMC4wMTU2MjUpIiBkPSJNIDM1OTcgMTg5NCAmIzEwO0wgMzU5NyAxNjEzICYjMTA7TCA5NTMgMTYxMyAmIzEwO1EgOTkxIDEwMTkgMTMxMSA3MDggJiMxMDtRIDE2MzEgMzk3IDIyMDMgMzk3ICYjMTA7USAyNTM0IDM5NyAyODQ1IDQ3OCAmIzEwO1EgMzE1NiA1NTkgMzQ2MyA3MjIgJiMxMDtMIDM0NjMgMTc4ICYjMTA7USAzMTUzIDQ3IDI4MjggLTIyICYjMTA7USAyNTAzIC05MSAyMTY5IC05MSAmIzEwO1EgMTMzMSAtOTEgODQyIDM5NiAmIzEwO1EgMzUzIDg4NCAzNTMgMTcxNiAmIzEwO1EgMzUzIDI1NzUgODE3IDMwNzkgJiMxMDtRIDEyODEgMzU4NCAyMDY5IDM1ODQgJiMxMDtRIDI3NzUgMzU4NCAzMTg2IDMxMjkgJiMxMDtRIDM1OTcgMjY3NSAzNTk3IDE4OTQgJiMxMDt6JiMxMDtNIDMwMjIgMjA2MyAmIzEwO1EgMzAxNiAyNTM0IDI3NTggMjgxNSAmIzEwO1EgMjUwMCAzMDk3IDIwNzUgMzA5NyAmIzEwO1EgMTU5NCAzMDk3IDEzMDUgMjgyNSAmIzEwO1EgMTAxNiAyNTUzIDk3MiAyMDU5ICYjMTA7TCAzMDIyIDIwNjMgJiMxMDt6IiBpZD0iRGVqYVZ1U2Fucy02NSIvPiYjeGE7ICAgICAgIDxwYXRoIHRyYW5zZm9ybT0ic2NhbGUoMC4wMTU2MjUpIiBkPSJNIDYyOCA0NjY2ICYjMTA7TCAxMjU5IDQ2NjYgJiMxMDtMIDEyNTkgNTMxICYjMTA7TCAzNTMxIDUzMSAmIzEwO0wgMzUzMSAwICYjMTA7TCA2MjggMCAmIzEwO0wgNjI4IDQ2NjYgJiMxMDt6IiBpZD0iRGVqYVZ1U2Fucy00YyIvPiYjeGE7ICAgICAgIDxwYXRoIHRyYW5zZm9ybT0ic2NhbGUoMC4wMTU2MjUpIiBkPSJNIDU1NiA0NjY2ICYjMTA7TCAxMTkxIDQ2NjYgJiMxMDtMIDExOTEgMTgzMSAmIzEwO1EgMTE5MSAxMDgxIDE0NjIgNzUxICYjMTA7USAxNzM0IDQyMiAyMzQ0IDQyMiAmIzEwO1EgMjk1MCA0MjIgMzIyMiA3NTEgJiMxMDtRIDM0OTQgMTA4MSAzNDk0IDE4MzEgJiMxMDtMIDM0OTQgNDY2NiAmIzEwO0wgNDEyOCA0NjY2ICYjMTA7TCA0MTI4IDE3NTMgJiMxMDtRIDQxMjggODQxIDM2NzYgMzc1ICYjMTA7USAzMjI1IC05MSAyMzQ0IC05MSAmIzEwO1EgMTQ1OSAtOTEgMTAwNyAzNzUgJiMxMDtRIDU1NiA4NDEgNTU2IDE3NTMgJiMxMDtMIDU1NiA0NjY2ICYjMTA7eiIgaWQ9IkRlamFWdVNhbnMtNTUiLz4mI3hhOyAgICAgIDwvZGVmcz4mI3hhOyAgICAgIDx1c2UgeGxpbms6aHJlZj0iI0RlamFWdVNhbnMtNTIiLz4mI3hhOyAgICAgIDx1c2UgeD0iNjQuOTgyNDIyIiB4bGluazpocmVmPSIjRGVqYVZ1U2Fucy02NSIvPiYjeGE7ICAgICAgPHVzZSB4PSIxMjYuNTA1ODU5IiB4bGluazpocmVmPSIjRGVqYVZ1U2Fucy00YyIvPiYjeGE7ICAgICAgPHVzZSB4PSIxNzcuMjE4NzUiIHhsaW5rOmhyZWY9IiNEZWphVnVTYW5zLTU1Ii8+JiN4YTsgICAgIDwvZz4mI3hhOyAgICA8L2c+JiN4YTsgICAgPGcgaWQ9ImxpbmUyZF8yNCI+JiN4YTsgICAgIDxwYXRoIHN0eWxlPSJmaWxsOiBub25lOyBzdHJva2U6ICNjMzc5MzU7IHN0cm9rZS13aWR0aDogMS41OyBzdHJva2UtbGluZWNhcDogc3F1YXJlIiBkPSJNIDkwIDEwMi44NTI4MTMgJiMxMDtMIDExMCAxMDIuODUyODEzIi8+JiN4YTsgICAgPC9nPiYjeGE7ICAgIDxnIGlkPSJsaW5lMmRfMjUiLz4mI3hhOyAgICA8ZyBpZD0idGV4dF8xOCI+JiN4YTsgICAgICYjeGE7ICAgICA8ZyB0cmFuc2Zvcm09InRyYW5zbGF0ZSgxMTggMTA2LjM1MjgxMykgc2NhbGUoMC4xIC0wLjEpIj4mI3hhOyAgICAgIDxkZWZzPiYjeGE7ICAgICAgIDxwYXRoIHRyYW5zZm9ybT0ic2NhbGUoMC4wMTU2MjUpIiBkPSJNIDIzNzUgNDg2MyAmIzEwO0wgMjM3NSA0Mzg0ICYjMTA7TCAxODI1IDQzODQgJiMxMDtRIDE1MTYgNDM4NCAxMzk1IDQyNTkgJiMxMDtRIDEyNzUgNDEzNCAxMjc1IDM4MDkgJiMxMDtMIDEyNzUgMzUwMCAmIzEwO0wgMjIyMiAzNTAwICYjMTA7TCAyMjIyIDMwNTMgJiMxMDtMIDEyNzUgMzA1MyAmIzEwO0wgMTI3NSAwICYjMTA7TCA2OTcgMCAmIzEwO0wgNjk3IDMwNTMgJiMxMDtMIDE0NyAzMDUzICYjMTA7TCAxNDcgMzUwMCAmIzEwO0wgNjk3IDM1MDAgJiMxMDtMIDY5NyAzNzQ0ICYjMTA7USA2OTcgNDMyOCA5NjkgNDU5NSAmIzEwO1EgMTI0MSA0ODYzIDE4MzEgNDg2MyAmIzEwO0wgMjM3NSA0ODYzICYjMTA7eiIgaWQ9IkRlamFWdVNhbnMtNjYiLz4mI3hhOyAgICAgICA8cGF0aCB0cmFuc2Zvcm09InNjYWxlKDAuMDE1NjI1KSIgZD0iTSAxMTcyIDQ0OTQgJiMxMDtMIDExNzIgMzUwMCAmIzEwO0wgMjM1NiAzNTAwICYjMTA7TCAyMzU2IDMwNTMgJiMxMDtMIDExNzIgMzA1MyAmIzEwO0wgMTE3MiAxMTUzICYjMTA7USAxMTcyIDcyNSAxMjg5IDYwMyAmIzEwO1EgMTQwNiA0ODEgMTc2NiA0ODEgJiMxMDtMIDIzNTYgNDgxICYjMTA7TCAyMzU2IDAgJiMxMDtMIDE3NjYgMCAmIzEwO1EgMTEwMCAwIDg0NyAyNDggJiMxMDtRIDU5NCA0OTcgNTk0IDExNTMgJiMxMDtMIDU5NCAzMDUzICYjMTA7TCAxNzIgMzA1MyAmIzEwO0wgMTcyIDM1MDAgJiMxMDtMIDU5NCAzNTAwICYjMTA7TCA1OTQgNDQ5NCAmIzEwO0wgMTE3MiA0NDk0ICYjMTA7eiIgaWQ9IkRlamFWdVNhbnMtNzQiLz4mI3hhOyAgICAgIDwvZGVmcz4mI3hhOyAgICAgIDx1c2UgeGxpbms6aHJlZj0iI0RlamFWdVNhbnMtNTMiLz4mI3hhOyAgICAgIDx1c2UgeD0iNjMuNDc2NTYyIiB4bGluazpocmVmPSIjRGVqYVZ1U2Fucy02ZiIvPiYjeGE7ICAgICAgPHVzZSB4PSIxMjQuNjU4MjAzIiB4bGluazpocmVmPSIjRGVqYVZ1U2Fucy02NiIvPiYjeGE7ICAgICAgPHVzZSB4PSIxNTguMTEzMjgxIiB4bGluazpocmVmPSIjRGVqYVZ1U2Fucy03NCIvPiYjeGE7ICAgICAgPHVzZSB4PSIxOTcuMzIyMjY2IiB4bGluazpocmVmPSIjRGVqYVZ1U2Fucy02ZCIvPiYjeGE7ICAgICAgPHVzZSB4PSIyOTQuNzM0Mzc1IiB4bGluazpocmVmPSIjRGVqYVZ1U2Fucy02MSIvPiYjeGE7ICAgICAgPHVzZSB4PSIzNTYuMDEzNjcyIiB4bGluazpocmVmPSIjRGVqYVZ1U2Fucy03OCIvPiYjeGE7ICAgICA8L2c+JiN4YTsgICAgPC9nPiYjeGE7ICAgIDxnIGlkPSJsaW5lMmRfMjYiPiYjeGE7ICAgICA8cGF0aCBzdHlsZT0iZmlsbDogbm9uZTsgc3Ryb2tlOiAjNTc4ZWExOyBzdHJva2Utd2lkdGg6IDEuNTsgc3Ryb2tlLWxpbmVjYXA6IHNxdWFyZSIgZD0iTSA5MCAxMTcuNTMwOTM4ICYjMTA7TCAxMTAgMTE3LjUzMDkzOCIvPiYjeGE7ICAgIDwvZz4mI3hhOyAgICA8ZyBpZD0ibGluZTJkXzI3Ii8+JiN4YTsgICAgPGcgaWQ9InRleHRfMTkiPiYjeGE7ICAgICAmI3hhOyAgICAgPGcgdHJhbnNmb3JtPSJ0cmFuc2xhdGUoMTE4IDEyMS4wMzA5MzgpIHNjYWxlKDAuMSAtMC4xKSI+JiN4YTsgICAgICA8ZGVmcz4mI3hhOyAgICAgICA8cGF0aCB0cmFuc2Zvcm09InNjYWxlKDAuMDE1NjI1KSIgZD0iTSAyNjkgMzUwMCAmIzEwO0wgODQ0IDM1MDAgJiMxMDtMIDE1NjMgNzY5ICYjMTA7TCAyMjc4IDM1MDAgJiMxMDtMIDI5NTYgMzUwMCAmIzEwO0wgMzY3NSA3NjkgJiMxMDtMIDQzOTEgMzUwMCAmIzEwO0wgNDk2NiAzNTAwICYjMTA7TCA0MDUwIDAgJiMxMDtMIDMzNzIgMCAmIzEwO0wgMjYxOSAyODY5ICYjMTA7TCAxODYzIDAgJiMxMDtMIDExODQgMCAmIzEwO0wgMjY5IDM1MDAgJiMxMDt6IiBpZD0iRGVqYVZ1U2Fucy03NyIvPiYjeGE7ICAgICAgIDxwYXRoIHRyYW5zZm9ybT0ic2NhbGUoMC4wMTU2MjUpIiBkPSJNIDI4MzQgMzM5NyAmIzEwO0wgMjgzNCAyODUzICYjMTA7USAyNTkxIDI5NzggMjMyOCAzMDQwICYjMTA7USAyMDY2IDMxMDMgMTc4NCAzMTAzICYjMTA7USAxMzU2IDMxMDMgMTE0MiAyOTcyICYjMTA7USA5MjggMjg0MSA5MjggMjU3OCAmIzEwO1EgOTI4IDIzNzggMTA4MSAyMjY0ICYjMTA7USAxMjM0IDIxNTAgMTY5NyAyMDQ3ICYjMTA7TCAxODk0IDIwMDMgJiMxMDtRIDI1MDYgMTg3MiAyNzY0IDE2MzMgJiMxMDtRIDMwMjIgMTM5NCAzMDIyIDk2NiAmIzEwO1EgMzAyMiA0NzggMjYzNiAxOTMgJiMxMDtRIDIyNTAgLTkxIDE1NzUgLTkxICYjMTA7USAxMjk0IC05MSA5ODkgLTM2ICYjMTA7USA2ODQgMTkgMzQ3IDEyOCAmIzEwO0wgMzQ3IDcyMiAmIzEwO1EgNjY2IDU1NiA5NzUgNDczICYjMTA7USAxMjg0IDM5MSAxNTg4IDM5MSAmIzEwO1EgMTk5NCAzOTEgMjIxMiA1MzAgJiMxMDtRIDI0MzEgNjY5IDI0MzEgOTIyICYjMTA7USAyNDMxIDExNTYgMjI3MyAxMjgxICYjMTA7USAyMTE2IDE0MDYgMTU4MSAxNTIyICYjMTA7TCAxMzgxIDE1NjkgJiMxMDtRIDg0NyAxNjgxIDYwOSAxOTE0ICYjMTA7USAzNzIgMjE0NyAzNzIgMjU1MyAmIzEwO1EgMzcyIDMwNDcgNzIyIDMzMTUgJiMxMDtRIDEwNzIgMzU4NCAxNzE2IDM1ODQgJiMxMDtRIDIwMzQgMzU4NCAyMzE1IDM1MzcgJiMxMDtRIDI1OTcgMzQ5MSAyODM0IDMzOTcgJiMxMDt6IiBpZD0iRGVqYVZ1U2Fucy03MyIvPiYjeGE7ICAgICAgPC9kZWZzPiYjeGE7ICAgICAgPHVzZSB4bGluazpocmVmPSIjRGVqYVZ1U2Fucy01MyIvPiYjeGE7ICAgICAgPHVzZSB4PSI2My40NzY1NjIiIHhsaW5rOmhyZWY9IiNEZWphVnVTYW5zLTc3Ii8+JiN4YTsgICAgICA8dXNlIHg9IjE0NS4yNjM2NzIiIHhsaW5rOmhyZWY9IiNEZWphVnVTYW5zLTY5Ii8+JiN4YTsgICAgICA8dXNlIHg9IjE3My4wNDY4NzUiIHhsaW5rOmhyZWY9IiNEZWphVnVTYW5zLTczIi8+JiN4YTsgICAgICA8dXNlIHg9IjIyNS4xNDY0ODQiIHhsaW5rOmhyZWY9IiNEZWphVnVTYW5zLTY4Ii8+JiN4YTsgICAgIDwvZz4mI3hhOyAgICA8L2c+JiN4YTsgICA8L2c+JiN4YTsgIDwvZz4mI3hhOyA8L2c+JiN4YTsgPGRlZnM+JiN4YTsgIDxjbGlwUGF0aCBpZD0icGJhYzgzMWRkYmEiPiYjeGE7ICAgPHJlY3QgaGVpZ2h0PSIyOTMuMzciIHdpZHRoPSI1MDIuMiIgeT0iNDUuNzIiIHg9IjgxIi8+JiN4YTsgIDwvY2xpcFBhdGg+JiN4YTsgPC9kZWZzPiYjeGE7PC9zdmc+;" parent="7r8PYEQYi6Yw_CeHk8A7-1" vertex="1">
          <mxGeometry width="510.24" height="300" as="geometry" />
        </mxCell>
        <mxCell id="TblgPoVMRZ4gIegY-W9L-8" value="" style="endArrow=classic;html=1;rounded=0;" parent="7r8PYEQYi6Yw_CeHk8A7-1" edge="1">
          <mxGeometry width="50" height="50" relative="1" as="geometry">
            <mxPoint x="464.5" y="151.5" as="sourcePoint" />
            <mxPoint x="465.5" y="151.5" as="targetPoint" />
          </mxGeometry>
        </mxCell>
        <mxCell id="TblgPoVMRZ4gIegY-W9L-6" value="$$x$$" style="rounded=0;whiteSpace=wrap;html=1;strokeColor=none;" parent="7r8PYEQYi6Yw_CeHk8A7-1" vertex="1">
          <mxGeometry x="452.5" y="164.5" width="10" height="10" as="geometry" />
        </mxCell>
        <mxCell id="TblgPoVMRZ4gIegY-W9L-7" value="$$y$$" style="rounded=0;whiteSpace=wrap;html=1;strokeColor=none;" parent="7r8PYEQYi6Yw_CeHk8A7-1" vertex="1">
          <mxGeometry x="225.5" y="31.5" width="10" height="10" as="geometry" />
        </mxCell>
        <mxCell id="TblgPoVMRZ4gIegY-W9L-9" value="" style="endArrow=classic;html=1;rounded=0;" parent="7r8PYEQYi6Yw_CeHk8A7-1" edge="1">
          <mxGeometry width="50" height="50" relative="1" as="geometry">
            <mxPoint x="261.5" y="36.5" as="sourcePoint" />
            <mxPoint x="261.5" y="29.5" as="targetPoint" />
          </mxGeometry>
        </mxCell>
        <mxCell id="TblgPoVMRZ4gIegY-W9L-13" value="" style="rounded=0;whiteSpace=wrap;html=1;strokeColor=none;" parent="7r8PYEQYi6Yw_CeHk8A7-1" vertex="1">
          <mxGeometry x="455.5" y="156.5" width="7" height="7" as="geometry" />
        </mxCell>
      </root>
    </mxGraphModel>
  </diagram>
</mxfile>
